<svg width="22" height="25" viewBox="0 0 22 25" fill="none" xmlns="http://www.w3.org/2000/svg">
<path d="M10.442 23.1254V13.1524L1.71389 8.09874V17.6068C1.71389 17.7447 1.74835 17.8738 1.81728 17.9942C1.88599 18.1149 1.98927 18.2181 2.12713 18.3041L10.442 23.1254ZM11.7848 23.1254L20.0998 18.3041C20.2376 18.2181 20.3409 18.1149 20.4096 17.9942C20.4785 17.8738 20.513 17.7447 20.513 17.6068V8.09874L11.7848 13.1524V23.1254ZM10.0288 24.432L1.45574 19.4921C1.11646 19.2977 0.850919 19.0333 0.659123 18.6992C0.467104 18.3653 0.371094 18.0037 0.371094 17.6146V7.92081C0.371094 7.53162 0.467104 7.17007 0.659123 6.83616C0.850919 6.50202 1.11646 6.23772 1.45574 6.04323L10.0288 1.10337C10.3681 0.908887 10.7296 0.811646 11.1134 0.811646C11.4973 0.811646 11.8588 0.908887 12.1981 1.10337L20.7712 6.04323C21.1104 6.23772 21.376 6.50202 21.5678 6.83616C21.7598 7.17007 21.8558 7.53162 21.8558 7.92081V17.6146C21.8558 18.0037 21.7598 18.3653 21.5678 18.6992C21.376 19.0333 21.1104 19.2977 20.7712 19.4921L12.1981 24.432C11.8588 24.6265 11.4973 24.7237 11.1134 24.7237C10.7296 24.7237 10.3681 24.6265 10.0288 24.432ZM16.0972 9.10853L19.7409 7.01173L11.5267 2.25752C11.3888 2.17158 11.2511 2.12861 11.1134 2.12861C10.9758 2.12861 10.8381 2.17158 10.7002 2.25752L7.4879 4.10388L16.0972 9.10853ZM11.1134 11.9983L14.739 9.8934L6.11154 4.90721L2.48599 7.01173L11.1134 11.9983Z" fill="#7B1316"/>
</svg>
