<svg width="33" height="33" viewBox="0 0 33 33" fill="none" xmlns="http://www.w3.org/2000/svg">
<mask id="mask0_1117_837" style="mask-type:alpha" maskUnits="userSpaceOnUse" x="0" y="0" width="33" height="33">
<rect width="32.2271" height="32.2274" fill="#D9D9D9"/>
</mask>
<g mask="url(#mask0_1117_837)">
<path d="M10.0706 25.5133C9.1409 25.5133 8.34899 25.1862 7.69482 24.532C7.04066 23.8779 6.71358 23.0859 6.71358 22.1563H3.71813L4.01254 20.8135H7.057C7.29982 20.2161 7.69147 19.731 8.23194 19.3582C8.77242 18.9856 9.38529 18.7993 10.0706 18.7993C10.7558 18.7993 11.3687 18.9856 11.9092 19.3582C12.4497 19.731 12.8413 20.2161 13.0841 20.8135H19.2842L22.2333 8.0568H7.52966L7.56055 7.9252C7.62589 7.57383 7.79587 7.28412 8.07047 7.05607C8.34507 6.82802 8.66914 6.71399 9.04266 6.71399H23.9118L22.8244 11.4138H25.6161L29.2571 16.2687L28.0949 22.1563H26.5457C26.5457 23.0859 26.2186 23.8779 25.5644 24.532C24.9103 25.1862 24.1183 25.5133 23.1887 25.5133C22.259 25.5133 21.4671 25.1862 20.8129 24.532C20.1588 23.8779 19.8317 23.0859 19.8317 22.1563H13.4276C13.4276 23.0859 13.1005 23.8779 12.4463 24.532C11.7921 25.1862 11.0002 25.5133 10.0706 25.5133ZM21.3319 17.7921H27.5786L27.8163 16.5964L24.9447 12.7566H22.5042L21.3319 17.7921ZM21.908 9.40229L22.2333 8.0568L19.2842 20.8135L19.6095 19.468L20.6736 14.7735L21.908 9.40229ZM2.24609 17.4538L2.58179 16.111H8.59853L8.26283 17.4538H2.24609ZM4.93169 12.7593L5.26738 11.4165H12.6269L12.2912 12.7593H4.93169ZM10.0706 24.1705C10.6231 24.1705 11.097 23.973 11.4923 23.578C11.8873 23.1827 12.0848 22.7088 12.0848 22.1563C12.0848 21.6037 11.8873 21.1298 11.4923 20.7346C11.097 20.3396 10.6231 20.1421 10.0706 20.1421C9.51801 20.1421 9.04411 20.3396 8.64888 20.7346C8.25388 21.1298 8.05637 21.6037 8.05637 22.1563C8.05637 22.7088 8.25388 23.1827 8.64888 23.578C9.04411 23.973 9.51801 24.1705 10.0706 24.1705ZM23.1887 24.1705C23.7412 24.1705 24.2151 23.973 24.6104 23.578C25.0054 23.1827 25.2029 22.7088 25.2029 22.1563C25.2029 21.6037 25.0054 21.1298 24.6104 20.7346C24.2151 20.3396 23.7412 20.1421 23.1887 20.1421C22.6361 20.1421 22.1622 20.3396 21.767 20.7346C21.372 21.1298 21.1745 21.6037 21.1745 22.1563C21.1745 22.7088 21.372 23.1827 21.767 23.578C22.1622 23.973 22.6361 24.1705 23.1887 24.1705Z" fill="#7B1316"/>
</g>
</svg>
