<svg width="33" height="33" viewBox="0 0 33 33" fill="none" xmlns="http://www.w3.org/2000/svg">
<mask id="mask0_1113_832" style="mask-type:alpha" maskUnits="userSpaceOnUse" x="0" y="0" width="33" height="33">
<rect width="32.227" height="32.2274" fill="#D9D9D9"/>
</mask>
<g mask="url(#mask0_1113_832)">
<path d="M15.442 26.4715V16.4985L6.71389 11.4448V20.9529C6.71389 21.0908 6.74835 21.2199 6.81728 21.3403C6.88599 21.4609 6.98927 21.5642 7.12713 21.6502L15.442 26.4715ZM16.7848 26.4715L25.0998 21.6502C25.2376 21.5642 25.3409 21.4609 25.4096 21.3403C25.4785 21.2199 25.513 21.0908 25.513 20.9529V11.4448L16.7848 16.4985V26.4715ZM15.0288 27.7781L6.45574 22.8382C6.11646 22.6437 5.85092 22.3794 5.65912 22.0453C5.4671 21.7114 5.37109 21.3498 5.37109 20.9606V11.2669C5.37109 10.8777 5.4671 10.5161 5.65912 10.1822C5.85092 9.84809 6.11646 9.58378 6.45574 9.3893L15.0288 4.44944C15.3681 4.25496 15.7296 4.15771 16.1134 4.15771C16.4973 4.15771 16.8588 4.25496 17.1981 4.44944L25.7711 9.3893C26.1104 9.58378 26.376 9.84809 26.5678 10.1822C26.7598 10.5161 26.8558 10.8777 26.8558 11.2669V20.9606C26.8558 21.3498 26.7598 21.7114 26.5678 22.0453C26.376 22.3794 26.1104 22.6437 25.7711 22.8382L17.1981 27.7781C16.8588 27.9726 16.4973 28.0698 16.1134 28.0698C15.7296 28.0698 15.3681 27.9726 15.0288 27.7781ZM21.0972 12.4546L24.7409 10.3578L16.5267 5.60358C16.3888 5.51765 16.2511 5.47468 16.1134 5.47468C15.9758 5.47468 15.8381 5.51765 15.7002 5.60358L12.4879 7.44995L21.0972 12.4546ZM16.1134 15.3443L19.739 13.2395L11.1115 8.25328L7.48599 10.3578L16.1134 15.3443Z" fill="#1C1B1F"/>
</g>
</svg>
