<svg width="33" height="33" viewBox="0 0 33 33" fill="none" xmlns="http://www.w3.org/2000/svg">
<mask id="mask0_844_4815" style="mask-type:alpha" maskUnits="userSpaceOnUse" x="0" y="0" width="33" height="33">
<rect y="0.653992" width="32.2271" height="32.2274" fill="#D9D9D9"/>
</mask>
<g mask="url(#mask0_844_4815)">
<path d="M10.0706 26.1672C9.1409 26.1672 8.34899 25.8401 7.69482 25.186C7.04066 24.5318 6.71358 23.7399 6.71358 22.8102H3.71813L4.01254 21.4674H7.057C7.29982 20.8701 7.69147 20.385 8.23194 20.0121C8.77242 19.6395 9.38529 19.4532 10.0706 19.4532C10.7558 19.4532 11.3687 19.6395 11.9092 20.0121C12.4497 20.385 12.8413 20.8701 13.0841 21.4674H19.2842L22.2333 8.71073H7.52966L7.56054 8.57913C7.62589 8.22776 7.79587 7.93805 8.07047 7.71C8.34507 7.48195 8.66914 7.36792 9.04266 7.36792H23.9118L22.8244 12.0677H25.6161L29.2571 16.9227L28.0949 22.8102H26.5457C26.5457 23.7399 26.2186 24.5318 25.5644 25.186C24.9103 25.8401 24.1183 26.1672 23.1887 26.1672C22.259 26.1672 21.4671 25.8401 20.8129 25.186C20.1588 24.5318 19.8317 23.7399 19.8317 22.8102H13.4276C13.4276 23.7399 13.1005 24.5318 12.4463 25.186C11.7921 25.8401 11.0002 26.1672 10.0706 26.1672ZM21.3319 18.4461H27.5786L27.8163 17.2503L24.9447 13.4106H22.5042L21.3319 18.4461ZM21.908 10.0562L22.2333 8.71073L19.2842 21.4674L19.6095 20.1219L20.6736 15.4274L21.908 10.0562ZM2.24609 18.1077L2.58179 16.7649H8.59853L8.26283 18.1077H2.24609ZM4.93169 13.4132L5.26739 12.0704H12.6269L12.2912 13.4132H4.93169ZM10.0706 24.8244C10.6231 24.8244 11.097 24.6269 11.4923 24.2319C11.8873 23.8367 12.0848 23.3628 12.0848 22.8102C12.0848 22.2576 11.8873 21.7837 11.4923 21.3885C11.097 20.9935 10.6231 20.796 10.0706 20.796C9.51801 20.796 9.04411 20.9935 8.64888 21.3885C8.25388 21.7837 8.05637 22.2576 8.05637 22.8102C8.05637 23.3628 8.25388 23.8367 8.64888 24.2319C9.04411 24.6269 9.51801 24.8244 10.0706 24.8244ZM23.1887 24.8244C23.7412 24.8244 24.2151 24.6269 24.6104 24.2319C25.0054 23.8367 25.2029 23.3628 25.2029 22.8102C25.2029 22.2576 25.0054 21.7837 24.6104 21.3885C24.2151 20.9935 23.7412 20.796 23.1887 20.796C22.6361 20.796 22.1622 20.9935 21.767 21.3885C21.372 21.7837 21.1745 22.2576 21.1745 22.8102C21.1745 23.3628 21.372 23.8367 21.767 24.2319C22.1622 24.6269 22.6361 24.8244 23.1887 24.8244Z" fill="#1C1B1F"/>
</g>
</svg>
