<svg width="189" height="74" viewBox="0 0 189 74" fill="none" xmlns="http://www.w3.org/2000/svg">
<path d="M86.8198 44.7141L85.0323 36.6019H85.0228V36.5894H85.0133V36.5768H85.0037V36.5643H84.9942V36.5518H84.9847V36.5392H84.9752V36.5267H84.9656V36.5142H84.9561V36.5016H84.9466V36.4891H84.937V36.4765H84.9275V36.464H84.918V36.4515H84.9085V36.4389H84.8989V36.4264H84.8894V36.4138H84.8799V36.4013H84.8704V36.3888H84.8608V36.3762H84.8513V36.3637H84.8418V36.3512H84.8323V36.3386H84.8228V36.3261H84.8132V36.3135H84.8037V36.301H84.7942V36.2885H84.7847V36.2759H84.7751V36.2634H84.7656V36.2509H84.7561V36.2383H84.7466V36.2258H84.737V36.2132H84.7275V36.2007H84.718V36.1882H84.7084V36.1756H84.6989V36.1631H84.6894V36.1505H84.6799V36.138H84.6703V36.1255H84.6608V36.1129H84.6513V36.1004H84.6418V36.0879H84.6322V36.0753H84.6227V36.0628H84.6132V36.0502H84.6037V36.0377H84.5942V36.0252H84.5846V36.0126H84.5751V36.0001H84.5656V35.9876H84.5561V35.975H84.5465V35.9625H84.537V35.9499H84.5275V35.9374H84.518V35.9249H84.5084V35.9123H84.4989V35.8998H84.4894V35.8872H84.4799V35.8747H84.4703V35.8622H84.4608V35.8496H84.4513V35.8371H84.4417V35.8246H84.4322V35.812H84.4227V35.7995H84.4132V35.7869H84.4036V35.7744H84.3941V35.7619H84.3846V35.7493H84.3751V35.7368H84.3656V35.7243H84.356V35.7117H84.3465V35.6992H84.337V35.6866H84.3275V35.6741H84.3179V35.6616H84.3084V35.649H84.2989V35.6365H84.2894V35.6239H84.2798V35.6114H84.2703V35.5989H84.2608V35.5863H84.2513V35.5738H84.2417V35.5613H84.2322V35.5487H84.2227V35.5362H84.2132V35.5236H84.2036V35.5111H84.1941V35.4986H84.1846V35.486H84.1751V35.4735H84.1655V35.4609H84.156V35.4484H84.1465V35.4359H84.137V35.4233H84.1274V35.4108H84.1179V35.3983H84.1084V35.3857H84.0989V35.3732H84.0893V35.3606H84.0798V35.3481H84.0703V35.3356H84.0608V35.323H84.0512V35.3105H84.0417V35.298H84.0322V35.2854H84.0227V35.2729H84.0131V35.2603H84.0036V35.2478H83.9941V35.2353H83.9846V35.2227H83.975V35.2102H83.9655V35.1976H83.956V35.1851H83.9465V35.1726H83.9369V35.16H83.9274V35.1475H83.9179V35.135H83.9084V35.1224H83.8988V35.1099H83.8893V35.0973H83.8798V35.0848L81.6287 35.5581L81.108 31.4456L83.1019 31.1384L81.2223 21.7317V21.7192H81.2128V21.7066H81.2033V21.6941H81.1937V21.6816H81.1842V21.669H81.1747V21.6565H81.1652V21.6439H81.1557V21.6314H81.1461V21.6189H81.1366V21.6063H81.1271V21.5938H81.1176V21.5812H81.108V21.5687H81.0985V21.5562H81.089V21.5436H81.0795V21.5311H81.0699V21.5186H81.0604V21.506H81.0509V21.4935H81.0414V21.4809H81.0318V21.4684H81.0223V21.4559H81.0128V21.4433H81.0033V21.4308H80.9937V21.4183H80.9842V21.4057H80.9747V21.3932H80.9651V21.3806H80.9556V21.3681H80.9461V21.3556H80.9366V21.343H80.9271V21.3305H80.9175V21.3179H80.908V21.3054H80.8985V21.2929H80.889V21.2803H80.8794V21.2678H80.8699V21.2553H80.8604V21.2427H80.8509V21.2302H80.8413V21.2176H80.8318V21.2051H80.8223V21.1926H80.8128V21.18H80.8032V21.1675H80.7937V21.155H80.7842V21.1424H80.7747V21.1299H80.7651V21.1173H80.7556V21.1048H80.7461V21.0923H80.7365V21.0797H80.727V21.0672L64.941 24.9791L65.2109 26.283H65.2014V26.2705H65.1919V26.258H65.1823V26.2454H65.1728V26.2329H65.1633V26.2204H65.1538V26.2078H65.1442V26.1953H65.1347V26.1827H65.1252V26.1702H65.1157V26.1577H65.1061V26.1451H65.0966V26.1326H65.0871V26.12H65.0776V26.1075H65.0681V26.095H65.0585V26.0824H65.049V26.0699H65.0395V26.0574H65.0299V26.0448H65.0204V26.0323H65.0109V26.0197H65.0014V26.0072H64.9918V25.9947H64.9823V25.9821H64.9728V25.9696H64.9633V25.9571H64.9538V25.9445H64.9442V25.932H64.9347V25.9194H64.9252V25.9069H64.9157V25.8944H64.9061V25.8818H64.8966V25.8693H64.8871V25.8567H64.8775V25.8442H64.868V25.8317H64.8585V25.8191H64.849V25.8066H64.8395V25.7941H64.8299V25.7815H64.8204V25.769H64.8109V25.7564H64.8014V25.7439H64.7918V25.7314H64.7823V25.7188H64.7728V25.7063H64.7632V25.6938H64.7537V25.6812H64.7442V25.6687H64.7347V25.6561H64.7252V25.6436H64.7156V25.6311H64.7061V25.6185H64.6966V25.606H64.6871V25.5934H64.6775V25.5809H64.668V25.5684H64.6585V25.5558H64.6489V25.5433H64.6394V25.5308H64.6299V25.5182H64.6204V25.5057H64.6109V25.4931H64.6013V25.4806H64.5918V25.4681H64.5823V25.4555H64.5728V25.443H64.5632V25.4305H64.5537V25.4179H64.5442V25.4054H64.5346V25.3928H64.5251V25.3803H64.5156V25.3678H64.5061V25.3552H64.4966V25.3427H64.487V25.3301H64.4775V25.3176H64.468V25.3051H64.4585V25.2925H64.4489V25.28H64.4394V25.2675H64.4299V25.2549H64.4204V25.2424H64.4108V25.2298H64.4013V25.2173H64.3918V25.2048H64.3823V25.1922H64.3727V25.1797H64.3632V25.1672H64.3537V25.1546H64.3442V25.1421H64.3346V25.1295H64.3251V25.117H64.3156V25.1045H64.3061V25.0919H64.2965V25.0794H64.287V25.0668H64.2775V25.0543H64.268V25.0418H64.2584V25.0292H64.2489V25.0167H64.2394V25.0042H64.2299V24.9916H64.2203V24.9791H64.2108V24.9665H64.2013V24.954H64.1918V24.9415H64.1822V24.9289H64.1727V24.9164H64.1632V24.9039H64.1537V24.8913L55.1589 25.5652V21.5624H55.1494V21.5499H55.1399V21.5374H55.1304V21.5248H55.1208V21.5123H55.1113V21.4997H55.1018V21.4872H55.0923V21.4747H55.0827V21.4621H55.0732V21.4496H55.0637V21.4371H55.0542V21.4245H55.0446V21.412H55.0351V21.3994H55.0256V21.3869H55.0161V21.3744H55.0065V21.3618H54.997V21.3493H54.9875V21.3368H54.978V21.3242H54.9685V21.3117H54.9589V21.2991H54.9494V21.2866H54.9399V21.2741H54.9303V21.2615H54.9208V21.249H54.9113V21.2364H54.9018V21.2239H54.8923V21.2114H54.8827V21.1988H54.8732V21.1863H54.8637V21.1738H54.8542V21.1612H54.8446V21.1487H54.8351V21.1361H54.8256V21.1236H54.816V21.1111H54.8065V21.0985H54.797V21.086H54.7875V21.0735H54.778V21.0609H54.7684V21.0484H54.7589V21.0358H54.7494V21.0233H54.7399V21.0108H54.7303V20.9982H54.7208V20.9857H54.7113V20.9732H54.7017V20.9606H54.6922V20.9481H54.6827V20.9355H54.6732V20.923H54.6637V20.9105H54.6541V20.8979H54.6446V20.8854H54.6351V20.8728H54.6256V20.8603H54.616V20.8478H54.6065V20.8352H54.597V20.8227H54.5874V20.8102H54.5779V20.7976H54.5684V20.7851H54.5589V20.7725H54.5494V20.76H54.5398V20.7475H54.5303V20.7349H54.5208V20.7224H54.5113V20.7098H54.5017V20.6973H54.4922V20.6848H54.4827V20.6722H54.4732V20.6597H54.4636V20.6472H54.4541V20.6346H54.4446V20.6221H54.4351V20.6095H54.4255V20.597H54.416V20.5845H54.4065V20.5719H54.397V20.5594H54.3874V20.5469H54.3779V20.5343H54.3684V20.5218H54.3589V20.5092H54.3493V20.4967H54.3398V20.4842H54.3303V20.4716H54.3208V20.4591H54.3112V20.4465H54.3017V20.434H54.2922V20.4215H54.2827V20.4089H54.2731V20.3964H54.2636V20.3839H54.2541V20.3713H54.2446V20.3588H54.235V20.3462H54.2255V20.3337H54.216V20.3212H54.2065V20.3086H54.1969V20.2961H54.1874V20.2836H54.1779V20.271H54.1684V20.2585H54.1588V20.2459H54.1493V20.2334H54.1398V20.2209H54.1303V20.2083H54.1207V20.1958H54.1112V20.1832H54.1017V20.1707H54.0922V20.1582H54.0826V20.1456H54.0731V20.1331H54.0636V20.1206H54.0541V20.108H54.0445V20.0955H54.035V20.0829H54.0255V20.0704H54.016V20.0579H54.0064V20.0453L32.1372 19.3244V19.5469L26.6127 20.5124L26.6413 20.8478H26.2857V20.8415H26.2762V20.829H26.2667V20.8164H26.2571V20.8039H26.2476V20.7913H26.2381V20.7788H26.2286V20.7663H26.219V20.7537H26.2095V20.7412H26.2V20.7287H26.1905V20.7161H26.1809V20.7036H26.1714V20.691H26.1619V20.6785H26.1524V20.666H26.1428V20.6534H26.1333V20.6409H26.1238V20.6284H26.1143V20.6158H26.1047V20.6033H26.0952V20.5907H26.0857V20.5782H26.0762V20.5657H26.0666V20.5531H26.0571V20.5406H26.0476V20.528L24.5585 20.8164H24.0251L24.0378 20.9167L23.279 21.064L15.9639 21.5718L17.1767 26.0323H17.1831V26.0448H17.1926V26.0574H17.2021V26.0699H17.2116V26.0824H17.2212V26.095H17.2307V26.1075H17.2402V26.12H17.2497V26.1326H17.2593V26.1451H17.2688V26.1577H17.2783V26.1702H17.2878V26.1827H17.2974V26.1953H17.3069V26.2078H17.3164V26.2204H17.3259V26.2329H17.3355V26.2454H17.345V26.258H17.3545V26.2705H17.364V26.283H17.3736V26.2956H17.3831V26.3081H17.3926V26.3207H17.4021V26.3332H17.4117V26.3457H17.4212V26.3583H17.4307V26.3708H17.4402V26.3833H17.4498V26.3959H17.4593V26.4084H17.4688V26.421H17.4783V26.4335H17.4879V26.446H17.4974V26.4586H17.5069V26.4711H17.5164V26.4837H17.526V26.4962H17.5355V26.5087H17.545V26.5213H17.5545V26.5338H17.5641V26.5463H17.5736V26.5589H17.5831V26.5714H17.5926V26.584H17.6022V26.5965H17.6117V26.609H17.6212V26.6216H17.6307V26.6341H17.6403V26.6467H17.6498V26.6592H17.6593V26.6717H17.6688V26.6843H17.6784V26.6968H17.6879V26.7093H17.6974V26.7219H17.7069V26.7344H17.7165V26.747H17.726V26.7595H17.7355V26.772H17.745V26.7846H17.7546V26.7971H17.7641V26.8096H17.7736V26.8222H17.7831V26.8347H17.7927V26.8473H17.8022V26.8598H17.8117V26.8723H17.8212V26.8849H17.8308V26.8974H17.8403V26.91H17.8498V26.9225H17.8593V26.935H17.8689V26.9476H17.8784V26.9601H17.8879V26.9726H17.8974V26.9852H17.907V26.9977H17.9165V27.0103H17.926V27.0228H17.9355V27.0353H17.9451V27.0479H17.9546V27.0604H17.9641V27.0729H17.9736V27.0855H17.9832V27.098H17.9927V27.1106H18.0022V27.1231H18.0117V27.1356H18.0213V27.1482H18.0308V27.1607H18.0403V27.1733H18.0498V27.1858H18.0594V27.1983H18.0689V27.2109H18.0784V27.2234H18.0879V27.2359H18.0975V27.2485H18.107V27.261H18.1165V27.2736H18.126V27.2861H18.1356V27.2986H18.1451V27.3112H18.1546V27.3237H18.1641V27.3362H18.1737V27.3488H18.1832V27.3613H18.1927V27.3739H18.2022V27.3864H18.2118V27.3989H18.2213V27.4115H18.2308V27.424H18.2403V27.4366H18.2499V27.4491H18.2594V27.4616H18.2689V27.4742H18.2784V27.4867H18.2879V27.4992H18.2975V27.5118H18.307V27.5243H18.3165L18.3387 27.8221H16.602L21.3105 57.1112H21.3201V57.1237H21.3296V57.1362H21.3391V57.1488H21.3486V57.1613H21.3582V57.1738H21.3677V57.1864H21.3772V57.1989H21.3867V57.2115H21.3963V57.224H21.4058V57.2365H21.4153V57.2491H21.4248V57.2616H21.4344V57.2742H21.4439V57.2867H21.4534V57.2992H21.4629V57.3118H21.4725V57.3243H21.482V57.3368H21.4915V57.3494H21.501V57.3619H21.5106V57.3745H21.5201V57.387H21.5296V57.3995H21.5391V57.4121H21.5487V57.4246H21.5582V57.4371H21.5677V57.4497H21.5772V57.4622H21.5867V57.4748H21.5963V57.4873H21.6058V57.4998H21.6153V57.5124H21.6249V57.5249H21.6344V57.5374H21.6439V57.55H21.6534V57.5625H21.663V57.5751H21.6725V57.5876H21.682V57.6001H21.6915V57.6127H21.701V57.6252H21.7106V57.6378H21.7201V57.6503H21.7296V57.6628H21.7391V57.6754H21.7487V57.6879H21.7582V57.7004H21.7677V57.713H21.7772V57.7255H21.7868V57.7381H21.7963V57.7506H21.8058V57.7631H21.8153V57.7757H21.8249V57.7882H21.8344V57.8008H21.8439V57.8133H21.8534V57.8258H21.863V57.8384H21.8725V57.8509H21.882V57.8634H21.8915V57.876H21.9011V57.8885H21.9106V57.9011H21.9201V57.9136H21.9296V57.9261H21.9392V57.9387H21.9487V57.9512H21.9582V57.9637H21.9677V57.9763H21.9773V57.9888H21.9868V58.0014H21.9963V58.0139H22.0058V58.0264H22.0154V58.039H22.0249V58.0515H22.0344V58.0641H22.0439V58.0766H22.0535V58.0891H22.063V58.1017H22.0725V58.1142H22.082V58.1267H22.0916V58.1393H22.1011V58.1518H22.1106V58.1644H22.1201V58.1769H22.1297V58.1894H22.1392V58.202H22.1487V58.2145H22.1582V58.227H22.1678V58.2396H22.1773V58.2521H22.1868V58.2647H22.1963V58.2772H22.2059V58.2897H22.2154V58.3023H22.2249V58.3148H22.2344V58.3274H22.244V58.3399H22.2535V58.3524H22.263V58.365H22.2725V58.3775H22.2821V58.39H22.2916V58.4026H22.3011V58.4151H22.3106V58.4277H22.3202V58.4402H22.3297V58.4527H22.3392V58.4653H22.3487V58.4778H22.3583V58.4903H22.3678V58.5029H22.3773V58.5154H22.3868V58.528H22.3964V58.5405H22.4059V58.553H22.4154V58.5656H22.4249V58.5781H22.4345V58.5907H22.444V58.6032H22.4535V58.6157H22.463V58.6283L49.8631 53.6318V43.8772H49.8536V43.8646H49.844V43.8521H49.8345V43.8396H49.825V43.827H49.8155V43.8145H49.8059V43.8019H49.7964V43.7894H49.7869V43.7769H49.7774V43.7643H49.7678V43.7518H49.7583V43.7392H49.7488V43.7267H49.7393V43.7142H49.7297V43.7016H49.7202V43.6891H49.7107V43.6766H49.7012V43.664H49.6916V43.6515H49.6821V43.6389H49.6726V43.6264H49.6631V43.6139H49.6535V43.6013H49.644V43.5888H49.6345V43.5763H49.625V43.5637H49.6154V43.5512H49.6059V43.5386H49.5964V43.5261H49.5869V43.5136H49.5773V43.501H49.5678V43.4885H49.5583V43.4759H49.5488V43.4634H49.5392V43.4509H49.5297V43.4383H49.5202V43.4258H49.5107V43.4133H49.5011V43.4007H49.4916V43.3882H49.4821V43.3756H49.4726V43.3631H49.463V43.3506H49.4535V43.338H49.444V43.3255H49.4345V43.3129H49.4249V43.3004H49.4154V43.2879H49.4059V43.2753H49.3964V43.2628H49.3868V43.2503H49.3773V43.2377H49.3678V43.2252H49.3583V43.2126H49.3487V43.2001H49.3392V43.1876H49.3297V43.175H49.3202V43.1625H49.3106V43.15H49.3011V43.1374H49.2916V43.1249H49.2821V43.1123H49.2725V43.0998H49.263V43.0873H49.2535V43.0747H49.244V43.0622H49.2344V43.0496H49.2249V43.0371H49.2154V43.0246H49.2059V43.012H49.1963V42.9995H49.1868V42.987H49.1773V42.9744H49.1678V42.9619H49.1582V42.9493H49.1487V42.9368H49.1392V42.9243H49.1297V42.9117H49.1201V42.8992H49.1106V42.8867H49.1011V42.8741H49.0916V42.8616H49.082V42.849H49.0725V42.8365H49.063V42.824H49.0535V42.8114H49.0439V42.7989H49.0344V42.7863H49.0249V42.7738H49.0154V42.7613H49.0058V42.7487H48.9963V42.7362H48.9868V42.7237H48.9773V42.7111H48.9677V42.6986H48.9582V42.686H48.9487V42.6735H48.9392V42.661H48.9296V42.6484H48.9201V42.6359H48.9106V42.6234H48.9011V42.6108H48.8915V42.5983H48.882V42.5857H48.8725V42.5732H48.863V42.5607H48.8534V42.5481H48.8439V42.5356H48.8344V42.5231H48.8249V42.5105H48.8153V42.498H48.8058V42.4854H48.7963V42.4729H48.7868V42.4604H48.7772V42.4478H48.7677V42.4353H48.7582V42.4227H48.7487V42.4102H48.7391V42.3977H48.7296V42.3851H48.7201V42.3726H48.7106V42.3601L48.2915 42.4478L47.9073 35.0785H50.5679L50.2187 51.6383H50.2282V51.6508H50.2377V51.6633H50.2473V51.6759H50.2568V51.6884H50.2663V51.701H50.2758V51.7135H50.2854V51.726H50.2949V51.7386H50.3044V51.7511H50.3139V51.7636H50.3235V51.7762H50.333V51.7887H50.3425V51.8013H50.352V51.8138H50.3616V51.8263H50.3711V51.8389H50.3806V51.8514H50.3901V51.864H50.3997V51.8765H50.4092V51.889H50.4187V51.9016H50.4282V51.9141H50.4378V51.9266H50.4473V51.9392H50.4568V51.9517H50.4663V51.9643H50.4759V51.9768H50.4854V51.9893H50.4949V52.0019H50.5044V52.0144H50.514V52.0269H50.5235V52.0395H50.533V52.052H50.5425V52.0646H50.5521V52.0771H50.5616V52.0896H50.5711V52.1022H50.5806V52.1147H50.5902V52.1273H50.5997V52.1398H50.6092V52.1523H50.6187V52.1649H50.6283V52.1774H50.6378V52.1899H50.6473V52.2025H50.6568V52.215H50.6664V52.2276H50.6759V52.2401H50.6854V52.2526H50.6949V52.2652H50.7045V52.2777H50.714V52.2902H50.7235V52.3028H50.733V52.3153H50.7426V52.3279H50.7521V52.3404H50.7616V52.3529H50.7711V52.3655H50.7807V52.378H50.7902V52.3906H50.7997V52.4031H50.8092V52.4156H50.8188V52.4282H50.8283V52.4407H50.8378V52.4532H50.8473V52.4658H50.8569V52.4783H50.8664V52.4909H50.8759V52.5034H50.8854V52.5159H50.895V52.5285H50.9045V52.541H50.914V52.5535H50.9235V52.5661H50.9331V52.5786H50.9426V52.5912H50.9521V52.6037H50.9616V52.6162H50.9712V52.6288H50.9807V52.6413H50.9902V52.6539H50.9997V52.6664H51.0093V52.6789H51.0188V52.6915H51.0283V52.704H51.0378V52.7165H51.0474V52.7291H51.0569V52.7416H51.0664V52.7542H51.0759V52.7667H51.0855V52.7792H51.095V52.7918H51.1045V52.8043H51.114V52.8168H51.1236V52.8294H51.1331V52.8419H51.1426V52.8545H51.1521V52.867H51.1617V52.8795H51.1712V52.8921H51.1807V52.9046H51.1902V52.9172H51.1997V52.9297H51.2093V52.9422H51.2188V52.9548H51.2283V52.9673H51.2379V52.9798H51.2474V52.9924H51.2569V53.0049H51.2664V53.0175H51.276V53.03H51.2855V53.0425H51.295V53.0551H51.3045V53.0676H51.314V53.0801H51.3236V53.0927H51.3331V53.1052H51.3426V53.1178H51.3522V53.1303H51.3617V53.1428H51.3712V53.1554L61.2486 56.5093L60.604 44.8395L63.2869 56.0454H63.2932V56.058H63.2996V56.0705H63.3059V56.083H63.3123V56.0956H63.3186V56.1081H63.325V56.1206H63.3313V56.1332H63.3377V56.1457H63.344V56.1583H63.3504V56.1708H63.3567V56.1833H63.3631V56.1959H63.3694V56.2084H63.3758V56.2209H63.3821V56.2335H63.3885V56.246H63.3948V56.2586H63.4012V56.2711H63.4075V56.2836H63.4139V56.2962H63.4202V56.3087H63.4266V56.3213H63.4329V56.3338H63.4393V56.3463H63.4456V56.3589H63.452V56.3714H63.4583V56.3839H63.4647V56.3965H63.471V56.409H63.4774V56.4216H63.4837V56.4341H63.4901V56.4466H63.4964V56.4592H63.5028V56.4717H63.5091V56.4842H63.5155V56.4968H63.5218V56.5093H63.5282V56.5219H63.5345V56.5344H63.5409V56.5469H63.5472V56.5595H63.5536V56.572H63.5599V56.5846H63.5663V56.5971H63.5726V56.6096H63.579V56.6222H63.5853V56.6347H63.5917V56.6472H63.598V56.6598H63.6044V56.6723H63.6107V56.6849H63.6171V56.6974H63.6234V56.7099H63.6298V56.7225H63.6361V56.735H63.6425V56.7475H63.6488V56.7601H63.6552V56.7726H63.6615V56.7852H63.6679V56.7977H63.6742V56.8102H63.6806V56.8228H63.6869V56.8353H63.6933V56.8479H63.6996V56.8604H63.706V56.8729H63.7123V56.8855H63.7187V56.898H63.725V56.9105H63.7314V56.9231H63.7377V56.9356H63.7441V56.9482H63.7504V56.9607H63.7568V56.9732H63.7631V56.9858H63.7695V56.9983H63.7758V57.0109H63.7822V57.0234H63.7885V57.0359H63.7949V57.0485H63.8012V57.061H63.8076V57.0735H63.8139V57.0861H63.8203V57.0986H63.8266V57.1112H63.833V57.1237H63.8393V57.1362H63.8457V57.1488H63.852V57.1613H63.8584V57.1738H63.8647V57.1864H63.8711V57.1989H63.8774V57.2115H63.8838V57.224H63.8901V57.2365H63.8965V57.2491H63.9028V57.2616H63.9092V57.2742H63.9155V57.2867H63.9219V57.2992H63.9282V57.3118H63.9346V57.3243H63.9409V57.3368H63.9473V57.3494H63.9536V57.3619H63.96V57.3745H63.9663V57.387H63.9727V57.3995H63.979V57.4121H63.9854V57.4246H63.9917V57.4371H63.9981V57.4497H64.0044V57.4622H64.0108V57.4748H64.0171V57.4873H64.0235V57.4998H64.0298V57.5124H64.0362V57.5249H64.0425V57.5374H64.0489V57.55H64.0552V57.5625L88.239 51.7856L86.4325 44.6514L86.5245 44.6357L86.8198 44.7141ZM65.4141 32.6054L65.1125 27.1889L66.1952 32.433L65.4141 32.6054Z" fill="black"/>
<path d="M172.29 41.7802C172.036 41.3068 171.744 40.8743 171.43 40.4825C171.426 40.4793 171.423 40.4731 171.42 40.4699C171.417 40.4668 171.414 40.4605 171.411 40.4574C171.407 40.4543 171.404 40.448 171.401 40.4448C171.398 40.4417 171.395 40.4354 171.392 40.4323C171.388 40.4292 171.385 40.4229 171.382 40.4198C171.379 40.4166 171.376 40.4104 171.372 40.4072C171.369 40.4041 171.366 40.3978 171.363 40.3947C171.36 40.3916 171.357 40.3853 171.353 40.3822C171.35 40.379 171.347 40.3728 171.344 40.3696C171.341 40.3665 171.338 40.3602 171.334 40.3571C171.331 40.3539 171.328 40.3477 171.325 40.3445C171.322 40.3414 171.319 40.3351 171.315 40.332C171.312 40.3289 171.309 40.3226 171.306 40.3195C171.303 40.3163 171.299 40.3101 171.296 40.3069C171.293 40.3038 171.29 40.2975 171.287 40.2944C171.284 40.2913 171.28 40.285 171.277 40.2819C171.274 40.2787 171.271 40.2725 171.268 40.2693C171.265 40.2662 171.261 40.2599 171.258 40.2568C171.255 40.2536 171.252 40.2474 171.249 40.2442C171.245 40.2411 171.242 40.2348 171.239 40.2317C171.236 40.2286 171.233 40.2223 171.23 40.2192C171.226 40.216 171.223 40.2098 171.22 40.2066C171.217 40.2035 171.214 40.1972 171.211 40.1941C171.207 40.191 171.204 40.1847 171.201 40.1815C171.198 40.1784 171.195 40.1721 171.192 40.169C171.188 40.1659 171.185 40.1596 171.182 40.1565C171.179 40.1533 171.176 40.1471 171.172 40.1439C171.169 40.1408 171.166 40.1345 171.163 40.1314C171.16 40.1283 171.157 40.122 171.153 40.1189C171.15 40.1157 171.147 40.1095 171.144 40.1063C171.141 40.1032 171.138 40.0969 171.134 40.0938C171.131 40.0906 171.128 40.0844 171.125 40.0812C171.122 40.0781 171.118 40.0718 171.115 40.0687C171.112 40.0656 171.109 40.0593 171.106 40.0562C171.103 40.053 171.099 40.0468 171.096 40.0436C171.093 40.0405 171.09 40.0342 171.087 40.0311C171.084 40.028 171.08 40.0217 171.077 40.0186C171.074 40.0154 171.071 40.0091 171.068 40.006C171.065 40.0029 171.061 39.9966 171.058 39.9935C171.055 39.9903 171.052 39.9841 171.049 39.9809C171.045 39.9778 171.042 39.9715 171.039 39.9684C171.036 39.9653 171.033 39.959 171.03 39.9559C171.026 39.9527 171.023 39.9465 171.02 39.9433C171.017 39.9402 171.014 39.9339 171.011 39.9308C171.007 39.9277 171.004 39.9214 171.001 39.9182C170.998 39.9151 170.995 39.9088 170.991 39.9057C170.988 39.9026 170.985 39.8963 170.982 39.8932C170.979 39.89 170.976 39.8838 170.972 39.8806C170.969 39.8775 170.966 39.8712 170.963 39.8681C170.96 39.865 170.957 39.8587 170.953 39.8556C170.95 39.8524 170.947 39.8462 170.944 39.843C170.941 39.8399 170.938 39.8336 170.934 39.8305C170.931 39.8273 170.928 39.8211 170.925 39.8179C170.922 39.8148 170.918 39.8085 170.915 39.8054C170.912 39.8023 170.909 39.796 170.906 39.7929C170.903 39.7897 170.899 39.7835 170.896 39.7803C170.893 39.7772 170.89 39.7709 170.887 39.7678C170.884 39.7647 170.88 39.7584 170.877 39.7553C170.874 39.7521 170.871 39.7458 170.868 39.7427C170.864 39.7396 170.861 39.7333 170.858 39.7302C170.855 39.727 170.852 39.7208 170.849 39.7176C170.845 39.7145 170.842 39.7082 170.839 39.7051C170.836 39.702 170.833 39.6957 170.83 39.6926C170.826 39.6894 170.823 39.6832 170.82 39.68C170.817 39.6769 170.814 39.6706 170.811 39.6675C170.807 39.6644 170.804 39.6581 170.801 39.6549C170.798 39.6518 170.795 39.6455 170.791 39.6424C170.788 39.6393 170.785 39.633 170.782 39.6299C170.779 39.6267 170.776 39.6205 170.772 39.6173C170.769 39.6142 170.766 39.6079 170.763 39.6048C170.76 39.6017 170.757 39.5954 170.753 39.5923C170.75 39.5891 170.747 39.5829 170.744 39.5797C170.741 39.5766 170.737 39.5703 170.734 39.5672C170.731 39.564 170.728 39.5578 170.725 39.5546C170.722 39.5515 170.718 39.5452 170.715 39.5421C170.712 39.539 170.709 39.5327 170.706 39.5296C170.703 39.5264 170.699 39.5202 170.696 39.517C170.693 39.5139 170.69 39.5076 170.687 39.5045C170.684 39.5014 170.68 39.4951 170.677 39.492C170.674 39.4888 170.671 39.4825 170.668 39.4794C170.664 39.4763 170.661 39.47 170.658 39.4669C170.655 39.4637 170.652 39.4575 170.649 39.4543C170.645 39.4512 170.642 39.4449 170.639 39.4418C170.636 39.4387 170.633 39.4324 170.63 39.4293C170.626 39.4261 170.623 39.4199 170.62 39.4167C170.617 39.4136 170.614 39.4073 170.61 39.4042C170.607 39.4011 170.604 39.3948 170.601 39.3916C170.598 39.3885 170.595 39.3822 170.591 39.3791C170.588 39.376 170.585 39.3697 170.582 39.3666C170.579 39.3634 170.576 39.3572 170.572 39.354C170.569 39.3509 170.566 39.3446 170.563 39.3415C170.56 39.3384 170.557 39.3321 170.553 39.329C170.55 39.3258 170.547 39.3196 170.544 39.3164C170.541 39.3133 170.537 39.307 170.534 39.3039C170.531 39.3007 170.528 39.2945 170.525 39.2913C170.522 39.2882 170.518 39.2819 170.515 39.2788C170.512 39.2757 170.509 39.2694 170.506 39.2663C170.503 39.2631 170.499 39.2569 170.496 39.2537C170.493 39.2506 170.49 39.2443 170.487 39.2412C170.483 39.2381 170.48 39.2318 170.477 39.2287C170.474 39.2255 170.471 39.2192 170.468 39.2161C170.464 39.213 170.461 39.2067 170.458 39.2036C170.455 39.2004 170.452 39.1942 170.449 39.191C170.445 39.1879 170.442 39.1816 170.439 39.1785C170.436 39.1754 170.433 39.1691 170.43 39.166C170.426 39.1628 170.423 39.1566 170.42 39.1534C170.417 39.1503 170.414 39.144 170.41 39.1409C170.407 39.1378 170.404 39.1315 170.401 39.1283C170.398 39.1252 170.395 39.1189 170.391 39.1158C170.388 39.1127 170.385 39.1064 170.382 39.1033C170.379 39.1001 170.376 39.0939 170.372 39.0907C170.369 39.0876 170.366 39.0813 170.363 39.0782C170.36 39.0751 170.356 39.0688 170.353 39.0657C170.35 39.0625 170.347 39.0563 170.344 39.0531C170.341 39.05 170.337 39.0437 170.334 39.0406C170.331 39.0374 170.328 39.0312 170.325 39.028C170.322 39.0249 170.318 39.0186 170.315 39.0155C170.312 39.0124 170.309 39.0061 170.306 39.003C170.303 38.9998 170.299 38.9936 170.296 38.9904C170.293 38.9873 170.29 38.981 170.287 38.9779C169.858 38.445 169.388 37.9905 168.915 37.6175L172.3 31.9691L172.287 31.9597L172.274 31.9471L172.261 31.9346L172.249 31.9221L172.236 31.9095L172.223 31.897L172.211 31.8844L172.198 31.8719L172.185 31.8594L172.173 31.8468L172.16 31.8343L172.147 31.8218L172.134 31.8092L172.122 31.7967L172.109 31.7841L172.096 31.7716L172.084 31.7591L172.071 31.7465L172.058 31.734L172.046 31.7214L172.033 31.7089L172.02 31.6964L172.007 31.6838L171.995 31.6713L171.982 31.6588L171.969 31.6462L171.957 31.6337L171.944 31.6211L171.931 31.6086L171.919 31.5961L171.906 31.5835L171.893 31.571L171.88 31.5585L171.868 31.5459L171.855 31.5334L171.842 31.5208L171.83 31.5083L171.817 31.4958L171.804 31.4832L171.792 31.4707L171.779 31.4581L171.766 31.4456L171.753 31.4331L171.741 31.4205L171.728 31.408L171.715 31.3955L171.703 31.3829L171.69 31.3704L171.677 31.3578L171.665 31.3453L171.652 31.3328L171.639 31.3202L171.626 31.3077L171.614 31.2952L171.601 31.2826L171.588 31.2701L171.576 31.2575L171.563 31.245L171.55 31.2325L171.538 31.2199L171.525 31.2074L171.512 31.1948L171.499 31.1823L171.487 31.1698L171.474 31.1572L171.461 31.1447L171.449 31.1322L171.436 31.1196L171.423 31.1071L171.411 31.0945L171.398 31.082L171.385 31.0695L171.372 31.0569L171.36 31.0444L171.347 31.0319L171.334 31.0193L171.322 31.0068L171.309 30.9942L171.296 30.9817L171.284 30.9692L171.271 30.9566L171.258 30.9441L171.245 30.9315L171.233 30.919L171.22 30.9065L171.207 30.8939L171.195 30.8814L171.182 30.8689L171.169 30.8563L171.157 30.8438L171.144 30.8312L171.131 30.8187L171.118 30.8062L171.106 30.7936L171.093 30.7811L171.08 30.7686L171.068 30.756L171.055 30.7435L171.042 30.7309L171.03 30.7184L171.017 30.7059L171.004 30.6933L170.991 30.6808L170.979 30.6682L170.966 30.6557L170.953 30.6432L170.941 30.6306L170.928 30.6181L170.915 30.6056L170.903 30.593L170.89 30.5805L170.877 30.5679L170.864 30.5554L170.852 30.5429L170.839 30.5303L170.826 30.5178L170.814 30.5053L170.801 30.4927L170.788 30.4802L170.776 30.4676L170.763 30.4551L169.369 29.5774C169.248 29.5022 166.353 27.7093 163.038 27.4773C159.723 27.2453 156.983 28.6559 155.323 31.5679C154.942 32.2386 154.644 32.8906 154.421 33.5269C152.523 32.5019 150.621 31.9158 148.757 31.7841C145.007 31.5208 142.102 33.085 140.086 34.7902L140.153 33.4893H140.143V33.4768H140.134V33.4642H140.124V33.4517H140.115V33.4392H140.105V33.4266H140.096V33.4141H140.086V33.4016H140.077V33.389H140.067V33.3765H140.058V33.3639H140.048V33.3514H140.039V33.3389H140.029V33.3263H140.02V33.3138H140.01V33.3013H140.001V33.2887H139.991V33.2762H139.981V33.2636H139.972V33.2511H139.962V33.2386H139.953V33.226H139.943V33.2135H139.934V33.2009H139.924V33.1884H139.915V33.1759H139.905V33.1633H139.896V33.1508H139.886V33.1383H139.877V33.1257H139.867V33.1132H139.858V33.1006H139.848V33.0881H139.839V33.0756H139.829V33.063H139.82V33.0505H139.81V33.038H139.801V33.0254H139.791V33.0129H139.781V33.0003H139.772V32.9878H139.762V32.9753H139.753V32.9627H139.743V32.9502H139.734V32.9376H139.724V32.9251H139.715V32.9126H139.705V32.9H139.696V32.8875H139.686V32.875H139.677V32.8624H139.667V32.8499H139.658V32.8373H139.648V32.8248H139.639V32.8123H139.629V32.7997H139.62V32.7872H139.61V32.7747H139.6V32.7621H139.591V32.7496H139.581V32.737H139.572V32.7245H139.562V32.712H139.553V32.6994H139.543V32.6869H139.534V32.6743H139.524V32.6618H139.515V32.6493H139.505V32.6367H139.496V32.6242H139.486V32.6117H139.477V32.5991H139.467V32.5866H139.458V32.574H139.448V32.5615H139.439V32.549H139.429V32.5364H139.42V32.5239H139.41V32.5114H139.4V32.4988H139.391V32.4863H139.381V32.4737H139.372V32.4612H139.362V32.4487H139.353V32.4361H139.343V32.4236H139.334V32.411H139.324V32.3985H139.315V32.386H139.305V32.3734H139.296V32.3609H139.286V32.3484H139.277V32.3358H139.267V32.3233H139.258V32.3107H139.248V32.2982H139.239V32.2857H139.229V32.2731H139.219V32.2606H139.21V32.2481H139.2V32.2355H139.191V32.223H139.181V32.2104H139.172V32.1979H139.162V32.1854H139.153V32.1728H139.143V32.1603H139.134V32.1477H139.124V32.1352H139.115V32.1227H139.105V32.1101H139.096V32.0976H139.086V32.0851H139.077V32.0725H139.067V32.06H139.058V32.0474H139.048V32.0349H139.039V32.0224H139.029V32.0098H139.019V31.9973H139.01V31.9848H139V31.9722L129.691 28.1982L129.822 33.6084L123.986 26.2392L124.542 21.6784H124.529V21.6659H124.516V21.6533H124.503V21.6408H124.491V21.6283H124.478V21.6157H124.465V21.6032H124.453V21.5906H124.44V21.5781H124.427V21.5656H124.415V21.553H124.402V21.5405H124.389V21.528H124.376V21.5154H124.364V21.5029H124.351V21.4903H124.338V21.4778H124.326V21.4653H124.313V21.4527H124.3V21.4402H124.288V21.4277H124.275V21.4151H124.262V21.4026H124.249V21.39H124.237V21.3775H124.224V21.365H124.211V21.3524H124.199V21.3399H124.186V21.3273H124.173V21.3148H124.161V21.3023H124.148V21.2897H124.135V21.2772H124.122V21.2647H124.11V21.2521H124.097V21.2396H124.084V21.227H124.072V21.2145H124.059V21.202H124.046V21.1894H124.034V21.1769H124.021V21.1643H124.008V21.1518H123.995V21.1393H123.983V21.1267H123.97V21.1142H123.957V21.1017H123.945V21.0891H123.932V21.0766H123.919V21.064H123.907V21.0515H123.894V21.039H123.881V21.0264H123.868V21.0139H123.856V21.0014H123.843V20.9888H123.83V20.9763H123.818V20.9637H123.805V20.9512H123.792V20.9387H123.78V20.9261H123.767V20.9136H123.754V20.9011H123.741V20.8885H123.729V20.876H123.716V20.8634H123.703V20.8509H123.691V20.8384H123.678V20.8258H123.665V20.8133H123.653V20.8007H123.64V20.7882H123.627V20.7757H123.614V20.7631H123.602V20.7506H123.589V20.7381H123.576V20.7255H123.564V20.713H123.551V20.7004H123.538V20.6879H123.526V20.6754H123.513V20.6628H123.5V20.6503H123.487V20.6377H123.475V20.6252H123.462V20.6127H123.449V20.6001H123.437V20.5876H123.424V20.5751H123.411V20.5625H123.399V20.55H123.386V20.5374H123.373V20.5249H123.36V20.5124H123.348V20.4998H123.335V20.4873H123.322V20.4748H123.31V20.4622H123.297V20.4497H123.284V20.4371H123.272V20.4246H123.259V20.4121H123.246V20.3995H123.233V20.387H123.221V20.3744H123.208V20.3619H123.195V20.3494H123.183V20.3368H123.17V20.3243H123.157V20.3118H123.145V20.2992H123.132V20.2867H123.119V20.2741H123.106V20.2616H123.094V20.2491H123.081V20.2365H123.068V20.224H123.056V20.2115H123.043V20.1989H123.03V20.1864H123.018V20.1738H123.005V20.1613L114.95 21.6596V21.6502L114.94 21.6533V21.6377L114.931 21.6408V21.6251L114.921 21.6283V21.6126L114.912 21.6157V21.6001L114.902 21.6032V21.5875L114.893 21.5906V21.575L114.883 21.5781V21.5624L114.874 21.5656V21.5499L114.864 21.553V21.5374L114.855 21.5405V21.5248L114.845 21.528V21.5123L114.836 21.5154V21.4997L114.826 21.5029V21.4872L114.817 21.4903V21.4747L114.807 21.4778V21.4621L114.798 21.4653V21.4496L114.788 21.4527V21.4371L114.779 21.4402V21.4245L114.769 21.4277V21.412L114.759 21.4151V21.3994L114.75 21.4026V21.3869L114.74 21.39V21.3744L114.731 21.3775V21.3618L114.721 21.365V21.3493L114.712 21.3524V21.3367L114.702 21.3399V21.3242L114.693 21.3273V21.3117L114.683 21.3148V21.2991L114.674 21.3023V21.2866L114.664 21.2897V21.2741L114.655 21.2772V21.2615L114.645 21.2647V21.249L114.636 21.2521V21.2364L114.626 21.2396V21.2239L114.617 21.227V21.2114L114.607 21.2145V21.1988L114.598 21.202V21.1863L114.588 21.1894V21.1738L114.579 21.1769V21.1612L114.569 21.1643V21.1487L114.559 21.1518V21.1361L114.55 21.1393V21.1236L114.54 21.1267V21.1111L114.531 21.1142V21.0985L114.521 21.1017V21.086L114.512 21.0891V21.0735L114.502 21.0766V21.0609L114.493 21.064V21.0484L114.483 21.0515V21.0358L114.474 21.039V21.0233L114.464 21.0264V21.0108L114.455 21.0139V20.9982L114.445 21.0014V20.9857L114.436 20.9888V20.9731L114.426 20.9763V20.9606L114.417 20.9637V20.9481L114.407 20.9512V20.9355L114.398 20.9387V20.923L114.388 20.9261V20.9105L114.378 20.9136V20.8979L114.369 20.9011V20.8854L114.359 20.8885V20.8728L114.35 20.876V20.8603L114.34 20.8634V20.8478L114.331 20.8509V20.8352L114.321 20.8384V20.8227L114.312 20.8258V20.8101L114.302 20.8133V20.7976L114.293 20.8007V20.7851L114.283 20.7882V20.7725L114.274 20.7757V20.76L114.264 20.7631V20.7475L114.255 20.7506V20.7349L114.245 20.7381V20.7224L114.236 20.7255V20.7098L105.638 24.4274H105.628V24.4149H105.619V24.4023H105.609V24.3898H105.6V24.3772H105.59V24.3647H105.581V24.3522H105.571V24.3396H105.562V24.3271H105.552V24.3146H105.543V24.302H105.533V24.2895H105.523V24.2769H105.514V24.2644H105.504V24.2519H105.495V24.2393H105.485V24.2268H105.476V24.2142H105.466V24.2017H105.457V24.1892H105.447V24.1766H105.438V24.1641H105.428V24.1516H105.419V24.139H105.409V24.1265H105.4V24.1139H105.39V24.1014H105.381V24.0889H105.371V24.0763H105.362V24.0638H105.352V24.0513H105.343V24.0387H105.333V24.0262H105.323V24.0136H105.314V24.0011H105.304V23.9886H105.295V23.976H105.285V23.9635H105.276V23.9509H105.266V23.9384H105.257V23.9259H105.247V23.9133H105.238V23.9008H105.228V23.8883H105.219V23.8757H105.209V23.8632H105.2V23.8506H105.19V23.8381H105.181V23.8256H105.171V23.813H105.162V23.8005H105.152V23.788H105.142V23.7754H105.133V23.7629H105.123V23.7503H105.114V23.7378H105.104V23.7253H105.095V23.7127H105.085V23.7002H105.076V23.6876H105.066V23.6751H105.057V23.6626H105.047V23.65H105.038V23.6375L85.1624 25.5621L86.626 35.3951V35.4014V35.4077H86.6355V35.4202H86.6451V35.4327H86.6546V35.4453H86.6641V35.4578L90.1598 34.9594L90.8678 54.1992H90.8773V54.2117H90.8868V54.2242H90.8964V54.2368H90.9059V54.2493H90.9154V54.2619H90.9249V54.2744H90.9345V54.2869H90.944V54.2995H90.9535V54.312H90.963V54.3246H90.9726V54.3371H90.9821V54.3496H90.9916V54.3622H91.0011V54.3747H91.0107V54.3872H91.0202V54.3998H91.0297V54.4123H91.0392V54.4249H91.0488V54.4374H91.0583V54.4499H91.0678V54.4625H91.0773V54.475H91.0869V54.4875H91.0964V54.5001H91.1059V54.5126H91.1154V54.5252H91.125V54.5377H91.1345V54.5502H91.144V54.5628H91.1535V54.5753H91.1631V54.5878H91.1726V54.6004H91.1821V54.6129H91.1916V54.6255H91.2012V54.638H91.2107V54.6505H91.2202V54.6631H91.2297V54.6756H91.2393V54.6882H91.2488V54.7007H91.2583V54.7132H91.2678V54.7258H91.2774V54.7383H91.2869V54.7508H91.2964V54.7634H91.3059V54.7759H91.3154V54.7885H91.325V54.801H91.3345V54.8135H91.344V54.8261H91.3536V54.8386H91.3631V54.8512H91.3726V54.8637H91.3821V54.8762H91.3917V54.8888H91.4012V54.9013H91.4107V54.9138H91.4202V54.9264H91.4298V54.9389H91.4393V54.9515H91.4488V54.964H91.4583V54.9765H91.4679V54.9891H91.4774V55.0016H91.4869V55.0141H91.4964V55.0267H91.5059V55.0392H91.5155V55.0518H91.525V55.0643H91.5345V55.0768H91.544V55.0894H91.5536V55.1019H91.5631V55.1145H91.5726V55.127H91.5822V55.1395H91.5917V55.1521H91.6012V55.1646H91.6107V55.1771H91.6203V55.1897H91.6298V55.2022H91.6393V55.2148H91.6488V55.2273H91.6584V55.2398H91.6679V55.2524H91.6774V55.2649H91.6869V55.2775H91.6965V55.29H91.706V55.3025H91.7155V55.3151H91.725V55.3276H91.7345V55.3401H91.7441V55.3527H91.7536V55.3652H91.7631V55.3778H91.7726V55.3903H91.7822V55.4028H91.7917V55.4154H91.8012V55.4279H91.8108V55.4404H91.8203V55.453H91.8298V55.4655H91.8393V55.4781H91.8489V55.4906H91.8584V55.5031H91.8679V55.5157H91.8774V55.5282H91.887V55.5407H91.8965V55.5533H91.906V55.5658H91.9155V55.5784H91.925V55.5909H91.9346V55.6034H91.9441V55.616H91.9536V55.6285H91.9631V55.6411H91.9727V55.6536H91.9822V55.6661H91.9917V55.6787H92.0012V55.6912H92.0108V55.7037H92.0203V55.7163L100.694 55.6097L100.545 52.5159L106.654 52.2746V52.284H106.663V52.2965H106.673V52.3091H106.682V52.3216H106.692V52.3341H106.701V52.3467H106.711V52.3592H106.72V52.3717H106.73V52.3843H106.739V52.3968H106.749V52.4094H106.759V52.4219H106.768V52.4344H106.778V52.447H106.787V52.4595H106.797V52.472H106.806V52.4846H106.816V52.4971H106.825V52.5097H106.835V52.5222L115.236 52.3968L115.242 51.2778L118.392 51.4972H118.395V51.5066L118.408 51.5129V51.5191L118.417 51.5254V51.5317L118.427 51.538V51.5442L118.436 51.5505V51.5568L118.446 51.563V51.5693L118.455 51.5756V51.5818L118.465 51.5881V51.5944L118.474 51.6006V51.6069L118.484 51.6132V51.6194L118.493 51.6257V51.632L118.503 51.6383V51.6445L118.512 51.6508V51.6571L118.522 51.6633V51.6696L118.531 51.6759V51.6821L127.123 56.6096L128.374 45.0996L137.422 57.061L137.432 57.0735L137.442 57.0861L137.451 57.0986L137.461 57.1111L137.47 57.1237L137.48 57.1362L137.489 57.1488L137.499 57.1613L137.508 57.1738L137.518 57.1864L137.527 57.1989L137.537 57.2115L137.546 57.224L137.556 57.2365L137.565 57.2491L137.575 57.2616L137.584 57.2741L137.594 57.2867L137.603 57.2992L137.613 57.3118L137.622 57.3243L137.632 57.3368L137.642 57.3494L137.651 57.3619L137.661 57.3744L137.67 57.387L137.68 57.3995L137.689 57.4121L137.699 57.4246L137.708 57.4371L137.718 57.4497L137.727 57.4622L137.737 57.4748L137.746 57.4873L137.756 57.4998L137.765 57.5124L137.775 57.5249L137.784 57.5374L137.794 57.55L137.803 57.5625L137.813 57.5751L137.823 57.5876L137.832 57.6001L137.842 57.6127L137.851 57.6252L137.861 57.6378L137.87 57.6503L137.88 57.6628L137.889 57.6754L137.899 57.6879L137.908 57.7004L137.918 57.713L137.927 57.7255L137.937 57.7381L137.946 57.7506L137.956 57.7631L137.965 57.7757L137.975 57.7882L137.984 57.8007L137.994 57.8133L138.003 57.8258L138.013 57.8384L138.023 57.8509L138.032 57.8634L138.042 57.876L138.051 57.8885L138.061 57.9011L138.07 57.9136L138.08 57.9261L138.089 57.9387L138.099 57.9512L138.108 57.9637L138.118 57.9763L138.127 57.9888L138.137 58.0014L138.146 58.0139L138.156 58.0264L138.165 58.039L138.175 58.0515L138.184 58.064L138.194 58.0766L138.204 58.0891L138.213 58.1017L138.223 58.1142L138.232 58.1267L138.242 58.1393L138.251 58.1518L138.261 58.1644L138.27 58.1769L138.28 58.1894L138.289 58.202L138.299 58.2145L138.308 58.227L138.318 58.2396L138.327 58.2521L138.337 58.2647L138.346 58.2772L138.356 58.2897L138.365 58.3023L138.375 58.3148L138.384 58.3273L138.394 58.3399L138.404 58.3524L138.413 58.365L138.423 58.3775L138.432 58.39L138.442 58.4026L138.451 58.4151L138.461 58.4277L138.47 58.4402L138.48 58.4527L138.489 58.4653L138.499 58.4778L138.508 58.4903L138.518 58.5029L138.527 58.5154L138.537 58.528L138.546 58.5405L138.556 58.553L138.565 58.5656L138.575 58.5781L138.804 54.1772C138.804 54.1772 138.807 54.1804 138.81 54.1835C138.813 54.1866 138.816 54.1929 138.819 54.196C138.823 54.1992 138.826 54.2054 138.829 54.2086C138.832 54.2117 138.835 54.218 138.839 54.2211C138.842 54.2242 138.845 54.2305 138.848 54.2337C138.851 54.2368 138.854 54.2431 138.858 54.2462C138.861 54.2493 138.864 54.2556 138.867 54.2587C138.87 54.2619 138.873 54.2681 138.877 54.2713C138.88 54.2744 138.883 54.2807 138.886 54.2838C138.889 54.2869 138.892 54.2932 138.896 54.2963C138.899 54.2995 138.902 54.3057 138.905 54.3089C138.908 54.312 138.912 54.3183 138.915 54.3214C138.918 54.3246 138.921 54.3308 138.924 54.334C138.927 54.3371 138.931 54.3434 138.934 54.3465C138.937 54.3496 138.94 54.3559 138.943 54.359C138.946 54.3622 138.95 54.3684 138.953 54.3716C138.956 54.3747 138.959 54.381 138.962 54.3841C138.965 54.3872 138.969 54.3935 138.972 54.3966C138.975 54.3998 138.978 54.4061 138.981 54.4092C138.985 54.4123 138.988 54.4186 138.991 54.4217C138.994 54.4249 138.997 54.4311 139 54.4343C139.004 54.4374 139.007 54.4437 139.01 54.4468C139.013 54.4499 139.016 54.4562 139.019 54.4593C139.023 54.4625 139.026 54.4687 139.029 54.4719C139.032 54.475 139.035 54.4813 139.039 54.4844C139.042 54.4875 139.045 54.4938 139.048 54.497C139.051 54.5001 139.054 54.5064 139.058 54.5095C139.061 54.5126 139.064 54.5189 139.067 54.522C139.07 54.5252 139.073 54.5314 139.077 54.5346C139.08 54.5377 139.083 54.544 139.086 54.5471C139.089 54.5502 139.093 54.5565 139.096 54.5596C139.099 54.5628 139.102 54.569 139.105 54.5722C139.108 54.5753 139.112 54.5816 139.115 54.5847C139.118 54.5879 139.121 54.5941 139.124 54.5973C139.127 54.6004 139.131 54.6067 139.134 54.6098C139.137 54.6129 139.14 54.6192 139.143 54.6223C139.146 54.6255 139.15 54.6317 139.153 54.6349C139.156 54.638 139.159 54.6443 139.162 54.6474C139.166 54.6505 139.169 54.6568 139.172 54.6599C139.175 54.6631 139.178 54.6693 139.181 54.6725C139.185 54.6756 139.188 54.6819 139.191 54.685C139.194 54.6882 139.197 54.6944 139.2 54.6976C139.204 54.7007 139.207 54.707 139.21 54.7101C139.213 54.7132 139.216 54.7195 139.219 54.7226C139.223 54.7258 139.226 54.732 139.229 54.7352C139.232 54.7383 139.235 54.7446 139.239 54.7477C139.242 54.7509 139.245 54.7571 139.248 54.7603C139.251 54.7634 139.254 54.7697 139.258 54.7728C139.261 54.7759 139.264 54.7822 139.267 54.7853C139.27 54.7885 139.273 54.7947 139.277 54.7979C139.28 54.801 139.283 54.8073 139.286 54.8104C139.289 54.8135 139.293 54.8198 139.296 54.8229C139.299 54.8261 139.302 54.8323 139.305 54.8355C140.68 56.4184 142.496 57.503 144.684 58.0264C145.744 58.2803 146.785 58.4433 147.779 58.5123C154.742 58.9981 157.631 54.8355 157.749 54.6568L158.015 54.2587L158.066 52.7165C159.228 53.3905 160.663 53.8105 162.229 53.9202C166.092 54.1898 170.884 52.541 172.281 48.2874C173.03 46.0055 172.871 43.7643 171.823 41.8021L172.29 41.7802Z" fill="black"/>
<path d="M33.207 21.4809V26.3489L38.2933 26.6059V44.4821L45.037 43.407L44.1575 26.4523L51.8346 26.399V22.0953L33.207 21.4809Z" fill="white"/>
<path d="M17.4592 23.5654L17.8402 24.9665H19.2944L19.5706 28.5242L21.4025 28.3456L20.92 24.6907H21.8883V23.2582L17.4592 23.5654Z" fill="white"/>
<path d="M22.5454 23.2582L24.1361 22.951L24.4472 24.8286L25.4854 24.6249L25.2791 22.951H27.0094L27.3904 27.6309H25.7998C25.7998 27.6309 25.5235 25.8473 25.5235 25.8944C25.5235 25.9414 24.5552 26.0605 24.5552 26.0605L24.9711 27.8691H22.9645L22.5486 23.2582H22.5454Z" fill="white"/>
<path d="M27.8032 22.3367L28.2191 27.2203L31.7815 26.9632L31.6418 25.8912H29.5336L29.5653 25.2048L30.6036 25.1013L30.5369 23.976L29.5336 24.0419L29.6003 23.2582H31.2258L31.1242 21.7536L27.8032 22.3367Z" fill="white"/>
<path d="M18.0815 29.8063C18.2117 29.8063 24.568 28.5242 24.568 28.5242L27.5779 48.6573L46.6722 44.7141V51.1681L22.2312 55.6254L18.0815 29.8063Z" fill="white"/>
<path d="M47.2183 28.0917V32.4957H51.8347L51.4473 50.886L57.9338 53.0895L56.7908 32.3922L62.4994 31.6243L62.2391 26.9632L47.2183 28.0917Z" fill="white"/>
<path d="M59.7212 35.4923L66.2616 34.0598L69.0112 47.1214L83.9018 43.9963L85.2512 49.325L64.236 54.3434L59.7212 35.4923Z" fill="white"/>
<path d="M66.5984 26.3739L70.3353 44.4821L83.5655 42.0748L82.4764 37.1316L75.4185 38.6174L75.0819 36.4671L78.6887 35.696L78.0664 30.7811L74.3295 31.9064L73.8627 29.4991L80.1936 28.5242L79.2062 23.2488L66.5984 26.3739Z" fill="white"/>
<path d="M87.0483 27.0353L87.188 31.9534L91.8775 31.2826L92.6553 52.4532L97.9036 52.3874L96.8685 31.013L103.746 30.3611L103.552 25.4398L87.0483 27.0353Z" fill="white"/>
<path d="M98.9102 32.2606L103.892 32.1227L104.219 39.0092L107.359 38.6205L107.083 25.6843L112.721 23.2488L112.556 49.1776L107.47 49.2529L107.168 42.8145L104.52 43.1688L104.752 49.0648L99.3293 49.278L98.9102 32.2606Z" fill="white"/>
<path d="M113.734 23.6156L121.319 22.2019L118.138 48.3L113.734 47.9928V23.6156Z" fill="white"/>
<path d="M122.195 26.7407L119.382 49.2247L124.735 52.2934L126.18 38.9653L136.261 52.2902L137.257 33.0505L131.473 30.7059L131.663 38.702L122.195 26.7407Z" fill="white"/>
<path d="M155.113 35.8089L152.716 40.2787C152.716 40.2787 148.338 38.0845 145.842 41.6861C143.344 45.2877 147.173 50.165 151.802 48.4661L152.345 45.4852L147.719 46.0243L148.189 41.7425L155.869 42.0623L155.526 52.1774C155.526 52.1774 152.421 56.7883 144.277 54.8449C136.137 52.9015 136.451 42.4071 138.597 39.1315C140.743 35.8559 146.614 30.173 155.113 35.8089Z" fill="white"/>
<path d="M168.598 30.9786L165.867 35.533C165.867 35.533 164.616 33.1539 162.905 34.1946C161.19 35.2353 164.372 37.232 166.391 38.1598C168.223 39.003 171.43 41.4228 169.855 46.2218C168.283 51.0208 160.568 51.936 157.352 49.1777L159.279 44.4038C159.279 44.4038 162.625 47.043 163.915 45.4726C165.048 44.0934 163.749 42.2002 160.127 40.9558C159.558 40.7614 153.291 38.7804 156.945 32.3734C160.6 25.9665 168.601 30.9754 168.601 30.9754L168.598 30.9786Z" fill="white"/>
<path d="M37.4362 32.4925C37.2299 31.1666 36.4996 30.1228 35.2709 29.3988C34.5343 28.9631 33.6929 28.7593 32.8389 28.8095C31.5054 28.8878 30.2767 29.5868 29.5496 30.6839C28.7273 31.9252 28.6225 33.3295 29.2448 34.856C29.6163 35.7713 30.2608 36.4859 31.1561 36.9749C31.1657 36.9875 31.1752 37.0031 31.1847 37.0219C31.0101 37.232 31.0037 37.467 31.0006 37.6332C31.0006 37.6708 31.0006 37.7084 30.9942 37.746C30.9688 37.9936 31.0355 38.3322 31.4832 38.5516C31.4768 38.7271 31.4832 38.9591 31.6197 39.1722L31.5879 39.47C31.5594 39.7427 31.5308 40.0154 31.499 40.2913C31.4673 40.5734 31.4324 40.8555 31.3974 41.1407L31.3879 41.2097C31.3149 41.2065 31.2419 41.2034 31.1688 41.2003C31.1688 41.078 31.1657 40.9558 31.1625 40.8335L31.1498 40.2317L30.4957 40.2818C30.2195 40.3038 29.9592 40.3226 29.6988 40.3508C29.4798 40.3759 29.3115 40.5828 29.2797 40.7614C29.1369 41.5701 29.0003 42.3789 28.8575 43.2032L28.7209 43.9994L30.1116 44.1781L30.1275 44.9868L28.6987 44.7674L28.5209 46.4882L28.6892 46.4976C28.6447 46.5917 28.613 46.7139 28.5876 46.8769C28.5781 46.9459 28.5654 47.0148 28.5527 47.0838L28.0764 49.8672L30.391 50.165V50.2058L33.4707 50.7669L33.5215 50.3406C33.5279 50.2998 33.531 50.2716 33.531 50.2434L33.5596 49.1965C33.5913 48.0586 33.6231 46.9177 33.6548 45.7798C33.6548 45.7798 33.7977 40.4292 33.8295 39.2506C33.8295 39.2224 33.839 39.1785 33.8485 39.144C33.8898 38.9873 33.9279 38.8243 33.9787 38.6644C34.3946 38.4952 34.5978 38.1472 34.5438 37.6927C34.5438 37.6708 34.5438 37.6551 34.5438 37.6551L34.5724 37.5642C34.655 37.3009 34.6962 37.1912 34.874 37.116C36.8743 36.2791 37.6871 34.1068 37.4331 32.4894L37.4362 32.4925ZM30.7339 47.0806L30.5148 47.0744L30.5053 46.6042L30.7878 46.6199L30.737 47.0806H30.7339ZM31.1561 43.2785V43.2408C31.1561 43.2408 31.1561 43.2408 31.1593 43.2408C31.1593 43.2534 31.1593 43.2659 31.1561 43.2753V43.2785Z" fill="white"/>
<path d="M33.166 50.3562C32.3659 50.212 31.5849 50.0679 30.7784 49.9237C30.8165 49.5726 30.8514 49.2309 30.8895 48.8642C30.6419 48.7921 30.3974 48.72 30.1371 48.6416L30.1593 49.7857C29.6037 49.7137 29.0544 49.6447 28.4924 49.5726C28.6258 48.7827 28.756 48.0241 28.8861 47.2656C28.9052 47.1559 28.9242 47.0462 28.9433 46.9365C28.9814 46.6941 29.1264 46.5634 29.3783 46.5446C29.6227 46.5258 29.8672 46.507 30.1434 46.4851C30.1498 46.8017 30.1561 47.0995 30.1625 47.4192C30.4736 47.4286 30.7498 47.438 31.0483 47.4474C31.0927 47.0618 31.134 46.692 31.1785 46.2939C30.4196 46.25 29.6862 46.2061 28.9147 46.1622C28.9496 45.83 28.9814 45.5102 29.0163 45.1717C29.5084 45.2469 29.9783 45.319 30.4927 45.3974C30.4831 44.9899 30.4768 44.6044 30.4704 44.1937C30.8038 44.2188 31.0959 44.2376 31.4071 44.2596C31.4515 43.8552 31.496 43.4697 31.5309 43.0841C31.5341 43.0465 31.4864 42.9775 31.4515 42.965C31.242 42.8929 31.0261 42.8365 30.7911 42.7675C30.7975 43.1625 30.807 43.5261 30.8133 43.9116C30.2482 43.8395 29.7021 43.7706 29.137 43.6985C29.3021 42.7236 29.464 41.7739 29.6322 40.8241C29.6418 40.7771 29.6989 40.7081 29.7402 40.7019C30.0736 40.6674 30.4101 40.6423 30.8038 40.611C30.8102 40.8711 30.8165 41.1125 30.8165 41.3539C30.8165 41.4886 30.8578 41.5545 31.0102 41.5513C31.2356 41.5482 31.4579 41.567 31.7055 41.5795C31.7563 41.1532 31.8071 40.7426 31.8547 40.332C31.8992 39.9465 31.9373 39.5578 31.9786 39.1691C31.9817 39.1346 32.0008 39.0845 31.9849 39.0688C31.769 38.8494 31.8579 38.5735 31.8389 38.3134C31.7754 38.2914 31.715 38.2726 31.6579 38.2475C31.4579 38.1535 31.3213 38.025 31.3467 37.7805C31.369 37.5705 31.315 37.3542 31.5182 37.1849C31.623 37.0972 31.4928 36.7586 31.3436 36.6771C30.5212 36.232 29.9243 35.5863 29.5751 34.7275C29.0354 33.4047 29.0322 32.107 29.8481 30.8783C30.988 29.1605 33.3057 28.6496 35.09 29.7028C36.1949 30.3548 36.8902 31.2795 37.0871 32.549C37.3093 33.9752 36.6362 36.0063 34.7408 36.7994C34.3693 36.9561 34.309 37.2508 34.2106 37.5548C34.1915 37.6112 34.1883 37.6802 34.1979 37.7397C34.2391 38.0908 34.0772 38.2914 33.7407 38.3855C33.6962 38.398 33.6676 38.4952 33.6486 38.5579C33.5978 38.724 33.5533 38.8964 33.5121 39.0656C33.4962 39.1252 33.4835 39.1879 33.4835 39.2475C33.4263 41.4228 33.3692 43.6013 33.3089 45.7767C33.2676 47.2656 33.2263 48.7514 33.185 50.2403C33.185 50.2685 33.1787 50.2935 33.1723 50.3594L33.166 50.3562ZM33.1279 36.3856C35.017 36.37 36.5442 34.8215 36.5251 32.9376C36.5061 31.0851 34.9313 29.5743 33.0453 29.5931C31.1626 29.6119 29.6354 31.1541 29.6481 33.0223C29.6608 34.8936 31.2229 36.4013 33.1279 36.3856Z" fill="#7B1316"/>
<path d="M33.0357 29.7686C34.8359 29.7373 36.3249 31.1666 36.3503 32.947C36.3757 34.7243 34.9311 36.1944 33.1277 36.2164C31.3275 36.2414 29.848 34.8121 29.8226 33.0254C29.7972 31.2575 31.2386 29.7968 33.0357 29.7686ZM31.9975 30.3987C31.5149 30.3642 30.5941 31.0726 30.5497 31.477C30.5338 31.6086 30.629 31.6588 30.737 31.6243C30.8164 31.5992 30.8894 31.5302 30.9497 31.4644C31.1148 31.2857 31.264 31.0914 31.4355 30.9159C31.6038 30.7435 31.7911 30.5867 31.9975 30.3987ZM30.7243 31.781C30.502 31.7308 30.3877 31.7841 30.3179 31.9597C30.1591 32.3703 30.1083 32.7903 30.1782 33.226C30.1877 33.2793 30.2099 33.3326 30.2258 33.3859C30.2449 33.3859 30.2607 33.3859 30.2798 33.3859C30.3084 32.8279 30.4227 32.2919 30.7243 31.781Z" fill="#7B1316"/>
<path d="M120.122 27.9381L120.252 27.3394L114.998 27.2485L114.804 29.2828L115.747 30.3109L114.791 40.4981L116.055 40.6392L117.058 30.6212L116.08 29.5398L116.112 27.7218L120.122 27.9381Z" fill="#A6A8AB"/>
<path d="M114.998 27.2485L116.049 27.6936L116.458 29.0477L115.96 29.5492L114.845 29.2734L114.807 29.2828L114.998 27.2485Z" fill="#808184"/>
<path d="M120.182 27.8158L116.048 27.6936L115.96 29.5492L116.947 30.6306L115.664 40.6204L117.703 40.7614L118.258 30.64L119.944 29.4207L120.182 27.8158Z" fill="#231F20"/>
</svg>
