<svg width="14" height="14" viewBox="0 0 14 14" fill="none" xmlns="http://www.w3.org/2000/svg">
<path d="M1.34625 13.3333C0.962639 13.3333 0.642361 13.2049 0.385417 12.9479C0.128472 12.691 0 12.3707 0 11.9871V1.34625C0 0.962639 0.128472 0.642361 0.385417 0.385417C0.642361 0.128472 0.962639 0 1.34625 0H11.9871C12.3707 0 12.691 0.128472 12.9479 0.385417C13.2049 0.642361 13.3333 0.962639 13.3333 1.34625V11.9871C13.3333 12.3707 13.2049 12.691 12.9479 12.9479C12.691 13.2049 12.3707 13.3333 11.9871 13.3333H1.34625ZM2.91667 10.4167H7.91667V9.58333H2.91667V10.4167ZM2.91667 7.08333H10.4167V6.25H2.91667V7.08333ZM2.91667 3.75H10.4167V2.91667H2.91667V3.75Z" fill="#7B1316"/>
</svg>
