<svg width="10" height="15" viewBox="0 0 10 15" fill="none" xmlns="http://www.w3.org/2000/svg">
<path d="M5 15C3.65597 15 2.55611 14.8288 1.70042 14.4865C0.844583 14.144 0.416667 13.7008 0.416667 13.1571C0.416667 12.8985 0.53875 12.6508 0.782916 12.4142C1.02694 12.1776 1.3616 11.9765 1.78687 11.8108L2.44229 12.3671C2.21049 12.4546 1.9709 12.5705 1.72354 12.7148C1.47618 12.859 1.32153 13.001 1.25958 13.141C1.35472 13.4167 1.75806 13.6566 2.46958 13.8606C3.18111 14.0647 4.02458 14.1667 5 14.1667C5.96472 14.1667 6.80632 14.0647 7.52479 13.8606C8.24326 13.6566 8.65007 13.4167 8.74521 13.141C8.70146 12.9978 8.54174 12.8542 8.26604 12.71C7.99035 12.5657 7.72965 12.4497 7.48396 12.3621L8.13458 11.8012C8.59833 11.9701 8.95569 12.1728 9.20667 12.4094C9.45778 12.646 9.58333 12.8953 9.58333 13.1571C9.58333 13.7008 9.15542 14.144 8.29958 14.4865C7.44389 14.8288 6.34403 15 5 15ZM5 12.5C3.31944 11.2265 2.06597 9.98938 1.23958 8.78854C0.413194 7.58757 0 6.4091 0 5.25313C0 4.38465 0.150347 3.62424 0.451042 2.97188C0.751875 2.31965 1.14264 1.77292 1.62333 1.33167C2.10417 0.890416 2.64104 0.558195 3.23396 0.335C3.82688 0.111667 4.41556 0 5 0C5.58444 0 6.17313 0.111667 6.76604 0.335C7.35896 0.558195 7.89583 0.890416 8.37667 1.33167C8.85736 1.77292 9.24812 2.31965 9.54896 2.97188C9.84965 3.62424 10 4.38465 10 5.25313C10 6.4091 9.58681 7.58757 8.76042 8.78854C7.93403 9.98938 6.68056 11.2265 5 12.5ZM5 6.49042C5.37292 6.49042 5.69049 6.36194 5.95271 6.105C6.21507 5.84806 6.34625 5.52778 6.34625 5.14417C6.34625 4.77139 6.21507 4.45382 5.95271 4.19146C5.69049 3.92924 5.37292 3.79813 5 3.79813C4.63778 3.79813 4.32285 3.92924 4.05521 4.19146C3.78757 4.45382 3.65375 4.77139 3.65375 5.14417C3.65375 5.52778 3.78757 5.84806 4.05521 6.105C4.32285 6.36194 4.63778 6.49042 5 6.49042Z" fill="#7B1316"/>
</svg>
