<svg width="13" height="15" viewBox="0 0 13 15" fill="none" xmlns="http://www.w3.org/2000/svg">
<path d="M7.5 14.391L7.45188 12.5H6.25C4.51278 12.5 3.03681 11.8926 1.82208 10.6779C0.607361 9.4632 0 7.98722 0 6.25C0 4.51278 0.607361 3.03681 1.82208 1.82208C3.03681 0.607361 4.51278 0 6.25 0C7.11861 0 7.93194 0.162639 8.69 0.487916C9.44792 0.813333 10.1097 1.25889 10.6754 1.82458C11.2411 2.39028 11.6867 3.05208 12.0121 3.81C12.3374 4.56806 12.5 5.38139 12.5 6.25C12.5 7.09931 12.3753 7.915 12.1258 8.69708C11.8764 9.47917 11.5313 10.2185 11.0906 10.915C10.6499 11.6117 10.1222 12.2533 9.50729 12.8398C8.89243 13.4263 8.22333 13.9434 7.5 14.391ZM6.27729 10.476C6.44924 10.476 6.59451 10.4167 6.71313 10.2981C6.83174 10.1795 6.89104 10.0342 6.89104 9.86208C6.89104 9.69014 6.83174 9.54486 6.71313 9.42625C6.59451 9.30764 6.44924 9.24833 6.27729 9.24833C6.10521 9.24833 5.95986 9.30764 5.84125 9.42625C5.72278 9.54486 5.66354 9.69014 5.66354 9.86208C5.66354 10.0342 5.72278 10.1795 5.84125 10.2981C5.95986 10.4167 6.10521 10.476 6.27729 10.476ZM5.91354 8.03854H6.65063C6.67201 7.6966 6.73771 7.42625 6.84771 7.2275C6.95785 7.02889 7.2191 6.72333 7.63146 6.31083C7.87076 6.07153 8.06042 5.82743 8.20042 5.57854C8.34028 5.32965 8.41021 5.04389 8.41021 4.72125C8.41021 4.11972 8.20271 3.64722 7.78771 3.30375C7.37257 2.96028 6.87069 2.78854 6.28208 2.78854C5.76708 2.78854 5.33063 2.92931 4.97271 3.21083C4.61479 3.49222 4.3525 3.82792 4.18583 4.21792L4.87187 4.48396C4.98396 4.23715 5.14792 4.0125 5.36375 3.81C5.57958 3.60764 5.88569 3.50646 6.28208 3.50646C6.75319 3.50646 7.10118 3.63465 7.32604 3.89104C7.55104 4.14743 7.66354 4.42736 7.66354 4.73083C7.66354 5.00958 7.59139 5.24542 7.44708 5.43833C7.30292 5.63111 7.11757 5.84076 6.89104 6.06729C6.49035 6.41993 6.22722 6.73646 6.10167 7.01688C5.97625 7.29729 5.91354 7.63785 5.91354 8.03854Z" fill="#7B1316"/>
</svg>
