<svg width="12" height="16" viewBox="0 0 12 16" fill="none" xmlns="http://www.w3.org/2000/svg">
<path d="M3.79813 8.04479H5.20833V6.07375H6.61875V8.04479H8.02896V4.66354L5.91354 3.25313L3.79813 4.66354V8.04479ZM5.91354 15.016C3.95521 13.2842 2.48007 11.6691 1.48812 10.1706C0.496041 8.67229 0 7.30882 0 6.08021C0 4.31729 0.574028 2.86319 1.72208 1.71792C2.87 0.572639 4.26715 0 5.91354 0C7.55993 0 8.95708 0.572639 10.105 1.71792C11.2531 2.86319 11.8271 4.31729 11.8271 6.08021C11.8271 7.30882 11.331 8.67229 10.339 10.1706C9.34701 11.6691 7.87187 13.2842 5.91354 15.016Z" fill="#7B1316"/>
</svg>
