<svg width="15" height="15" viewBox="0 0 15 15" fill="none" xmlns="http://www.w3.org/2000/svg">
<path d="M7.08333 11.25H7.91667V6.66667H7.08333V11.25ZM7.5 5.48083C7.64528 5.48083 7.76708 5.43167 7.86542 5.33333C7.96375 5.235 8.01292 5.11319 8.01292 4.96792C8.01292 4.82264 7.96375 4.70083 7.86542 4.6025C7.76708 4.50431 7.64528 4.45521 7.5 4.45521C7.35472 4.45521 7.23292 4.50431 7.13458 4.6025C7.03625 4.70083 6.98708 4.82264 6.98708 4.96792C6.98708 5.11319 7.03625 5.235 7.13458 5.33333C7.23292 5.43167 7.35472 5.48083 7.5 5.48083ZM7.50271 15C6.46562 15 5.49056 14.8032 4.5775 14.4096C3.66458 14.016 2.87042 13.4818 2.195 12.8071C1.51958 12.1324 0.98493 11.3389 0.591042 10.4267C0.197014 9.51458 0 8.53993 0 7.50271C0 6.46562 0.196805 5.49056 0.590417 4.5775C0.984028 3.66458 1.51819 2.87042 2.19292 2.195C2.86764 1.51958 3.66111 0.98493 4.57333 0.591042C5.48542 0.197014 6.46007 0 7.49729 0C8.53438 0 9.50945 0.196806 10.4225 0.590417C11.3354 0.984028 12.1296 1.51819 12.805 2.19292C13.4804 2.86764 14.0151 3.66111 14.409 4.57333C14.803 5.48542 15 6.46007 15 7.49729C15 8.53438 14.8032 9.50944 14.4096 10.4225C14.016 11.3354 13.4818 12.1296 12.8071 12.805C12.1324 13.4804 11.3389 14.0151 10.4267 14.409C9.51458 14.803 8.53993 15 7.50271 15Z" fill="#7B1316"/>
</svg>
