<svg width="12" height="15" viewBox="0 0 12 15" fill="none" xmlns="http://www.w3.org/2000/svg">
<path d="M1.34625 15C0.975972 15 0.659028 14.8682 0.395417 14.6046C0.131805 14.341 0 14.024 0 13.6538V6.34625C0 5.97597 0.131805 5.65903 0.395417 5.39542C0.659028 5.1318 0.975972 5 1.34625 5H2.5V3.33333C2.5 2.40486 2.82347 1.61722 3.47042 0.970417C4.11722 0.323473 4.90486 0 5.83333 0C6.76181 0 7.54944 0.323473 8.19625 0.970417C8.84319 1.61722 9.16667 2.40486 9.16667 3.33333V5H10.3204C10.6907 5 11.0076 5.1318 11.2712 5.39542C11.5349 5.65903 11.6667 5.97597 11.6667 6.34625V13.6538C11.6667 14.024 11.5349 14.341 11.2712 14.6046C11.0076 14.8682 10.6907 15 10.3204 15H1.34625ZM5.83333 11.25C6.18486 11.25 6.48104 11.1295 6.72188 10.8885C6.96285 10.6477 7.08333 10.3515 7.08333 10C7.08333 9.64847 6.96285 9.35229 6.72188 9.11146C6.48104 8.87049 6.18486 8.75 5.83333 8.75C5.48181 8.75 5.18563 8.87049 4.94479 9.11146C4.70382 9.35229 4.58333 9.64847 4.58333 10C4.58333 10.3515 4.70382 10.6477 4.94479 10.8885C5.18563 11.1295 5.48181 11.25 5.83333 11.25ZM3.33333 5H8.33333V3.33333C8.33333 2.63889 8.09028 2.04861 7.60417 1.5625C7.11806 1.07639 6.52778 0.833333 5.83333 0.833333C5.13889 0.833333 4.54861 1.07639 4.0625 1.5625C3.57639 2.04861 3.33333 2.63889 3.33333 3.33333V5Z" fill="#7B1316"/>
</svg>
