<svg width="15" height="12" viewBox="0 0 15 12" fill="none" xmlns="http://www.w3.org/2000/svg">
<path d="M1.34625 11.6667C0.962639 11.6667 0.642361 11.5382 0.385417 11.2813C0.128472 11.0243 0 10.704 0 10.3204V1.34625C0 0.962639 0.128472 0.642361 0.385417 0.385417C0.642361 0.128472 0.962639 0 1.34625 0H13.6538C14.0374 0 14.3576 0.128472 14.6146 0.385417C14.8715 0.642361 15 0.962639 15 1.34625V10.3204C15 10.704 14.8715 11.0243 14.6146 11.2813C14.3576 11.5382 14.0374 11.6667 13.6538 11.6667H1.34625ZM7.5 5.92958L14.1667 1.57042L13.9102 0.833333L7.5 5L1.08979 0.833333L0.833333 1.57042L7.5 5.92958Z" fill="#7B1316"/>
</svg>
