<svg width="15" height="12" viewBox="0 0 15 12" fill="none" xmlns="http://www.w3.org/2000/svg">
<path d="M11.0096 11.4265L10.8879 10.4648C10.6571 10.4167 10.4394 10.3358 10.2348 10.2221C10.0302 10.1083 9.84618 9.96382 9.68271 9.78854L8.77875 10.1475L8.42625 9.54813L9.19229 8.97125C9.10049 8.73403 9.05458 8.48937 9.05458 8.23729C9.05458 7.98521 9.10049 7.74056 9.19229 7.50333L8.44229 6.89437L8.79479 6.295L9.68271 6.67C9.83549 6.49472 10.0168 6.35292 10.2267 6.24458C10.4367 6.13611 10.6571 6.05785 10.8879 6.00979L11.0096 5.04813H11.7148L11.8204 6.00979C12.0513 6.05785 12.2717 6.13688 12.4817 6.24687C12.6915 6.35687 12.8728 6.50111 13.0256 6.67958L13.9135 6.295L14.266 6.90396L13.516 7.51292C13.6078 7.74375 13.6538 7.98681 13.6538 8.24208C13.6538 8.49736 13.6078 8.74042 13.516 8.97125L14.2821 9.54813L13.9296 10.1475L13.0256 9.78854C12.8622 9.96382 12.6781 10.1083 12.4735 10.2221C12.269 10.3358 12.0513 10.4167 11.8204 10.4648L11.7148 11.4265H11.0096ZM0 11.0258V9.65396C0 9.27035 0.0966666 8.93861 0.29 8.65875C0.483472 8.37889 0.756458 8.15611 1.10896 7.99042C1.78521 7.66139 2.48236 7.39056 3.20042 7.17792C3.91833 6.96542 4.79597 6.85917 5.83333 6.85917H6.02875C6.09083 6.85917 6.15285 6.86236 6.21479 6.86875C5.97229 7.48403 5.86701 8.19125 5.89896 8.99042C5.93104 9.78958 6.10681 10.4681 6.42625 11.0258H0ZM11.3463 9.74375C11.7618 9.74375 12.1167 9.59653 12.411 9.30208C12.7053 9.00778 12.8525 8.65285 12.8525 8.23729C12.8525 7.82174 12.7053 7.46674 12.411 7.17229C12.1167 6.87799 11.7618 6.73083 11.3463 6.73083C10.9306 6.73083 10.5756 6.87799 10.2812 7.17229C9.98695 7.46674 9.83979 7.82174 9.83979 8.23729C9.83979 8.65285 9.98695 9.00778 10.2812 9.30208C10.5756 9.59653 10.9306 9.74375 11.3463 9.74375ZM5.83333 5C5.14097 5 4.55125 4.75646 4.06417 4.26937C3.57694 3.78215 3.33333 3.19236 3.33333 2.5C3.33333 1.80778 3.57694 1.21806 4.06417 0.730834C4.55125 0.243611 5.14097 0 5.83333 0C6.52569 0 7.11542 0.243611 7.6025 0.730834C8.08972 1.21806 8.33333 1.80778 8.33333 2.5C8.33333 3.19236 8.08972 3.78215 7.6025 4.26937C7.11542 4.75646 6.52569 5 5.83333 5Z" fill="#7B1316"/>
</svg>
