<svg width="14" height="14" viewBox="0 0 14 14" fill="none" xmlns="http://www.w3.org/2000/svg">
<path d="M1.34625 13.3333C0.973333 13.3333 0.655695 13.2022 0.393333 12.94C0.131111 12.6776 0 12.36 0 11.9871V2.90542C0 2.74306 0.0259027 2.59028 0.0777082 2.44708C0.129514 2.30389 0.207222 2.17194 0.310833 2.05125L1.60896 0.492083C1.72965 0.329583 1.88056 0.206945 2.06167 0.124167C2.24278 0.0413893 2.43694 0 2.64417 0H10.6571C10.8643 0 11.0611 0.0413893 11.2475 0.124167C11.434 0.206945 11.5876 0.329583 11.7083 0.492083L13.0225 2.08333C13.1261 2.20403 13.2038 2.33861 13.2556 2.48708C13.3074 2.63569 13.3333 2.79118 13.3333 2.95354V11.9871C13.3333 12.36 13.2022 12.6776 12.94 12.94C12.6776 13.2022 12.36 13.3333 11.9871 13.3333H1.34625ZM1.15062 2.33979H12.1667L11.0577 1.00958C11.0042 0.95625 10.9428 0.913542 10.8733 0.881458C10.8039 0.849375 10.7318 0.833333 10.6571 0.833333H2.66021C2.58549 0.833333 2.5134 0.849375 2.44396 0.881458C2.37451 0.913542 2.31306 0.95625 2.25958 1.00958L1.15062 2.33979ZM9.16667 3.17313H4.16667V8.83021L6.66667 7.58021L9.16667 8.83021V3.17313Z" fill="#7B1316"/>
</svg>
