<svg width="25" height="25" viewBox="0 0 25 25" fill="none" xmlns="http://www.w3.org/2000/svg">
<mask id="mask0_1291_2002" style="mask-type:alpha" maskUnits="userSpaceOnUse" x="0" y="0" width="25" height="25">
<rect width="25" height="25" fill="#D9D9D9"/>
</mask>
<g mask="url(#mask0_1291_2002)">
<path d="M1.30212 21.6146V16.9271H2.86462V20.0521H5.98962V21.6146H1.30212ZM19.0105 21.6146V20.0521H22.1355V16.9271H23.698V21.6146H19.0105ZM4.16671 18.75V6.24999H6.25004V18.75H4.16671ZM7.29171 18.75V6.24999H8.33337V18.75H7.29171ZM10.4167 18.75V6.24999H12.5V18.75H10.4167ZM13.5417 18.75V6.24999H16.6667V18.75H13.5417ZM17.7084 18.75V6.24999H18.75V18.75H17.7084ZM19.7917 18.75V6.24999H20.8334V18.75H19.7917ZM1.30212 8.07291V3.38541H5.98962V4.94791H2.86462V8.07291H1.30212ZM22.1355 8.07291V4.94791H19.0105V3.38541H23.698V8.07291H22.1355Z" fill="#2D2D2D"/>
</g>
</svg>
