<svg width="128" height="50" viewBox="0 0 128 50" fill="none" xmlns="http://www.w3.org/2000/svg">
<path d="M58.7976 30.2122L57.5871 24.731H57.5806V24.7226H57.5742V24.7141H57.5677V24.7056H57.5613V24.6971H57.5548V24.6887H57.5484V24.6802H57.5419V24.6717H57.5354V24.6633H57.529V24.6548H57.5225V24.6463H57.5161V24.6378H57.5096V24.6294H57.5032V24.6209H57.4967V24.6124H57.4903V24.604H57.4838V24.5955H57.4774V24.587H57.4709V24.5785H57.4645V24.5701H57.458V24.5616H57.4516V24.5531H57.4451V24.5447H57.4387V24.5362H57.4322V24.5277H57.4258V24.5192H57.4193V24.5108H57.4129V24.5023H57.4064V24.4938H57.4V24.4854H57.3935V24.4769H57.3871V24.4684H57.3806V24.4599H57.3742V24.4515H57.3677V24.443H57.3613V24.4345H57.3548V24.426H57.3484V24.4176H57.3419V24.4091H57.3355V24.4006H57.329V24.3922H57.3226V24.3837H57.3161V24.3752H57.3097V24.3667H57.3032V24.3583H57.2968V24.3498H57.2903V24.3413H57.2839V24.3329H57.2774V24.3244H57.271V24.3159H57.2645V24.3074H57.2581V24.299H57.2516V24.2905H57.2452V24.282H57.2387V24.2736H57.2323V24.2651H57.2258V24.2566H57.2194V24.2481H57.2129V24.2397H57.2065V24.2312H57.2V24.2227H57.1936V24.2143H57.1871V24.2058H57.1807V24.1973H57.1742V24.1888H57.1678V24.1804H57.1613V24.1719H57.1549V24.1634H57.1484V24.155H57.142V24.1465H57.1355V24.138H57.1291V24.1295H57.1226V24.1211H57.1162V24.1126H57.1097V24.1041H57.1033V24.0957H57.0968V24.0872H57.0903V24.0787H57.0839V24.0702H57.0774V24.0618H57.071V24.0533H57.0645V24.0448H57.0581V24.0363H57.0516V24.0279H57.0452V24.0194H57.0387V24.0109H57.0323V24.0025H57.0258V23.994H57.0194V23.9855H57.0129V23.977H57.0065V23.9686H57V23.9601H56.9936V23.9516H56.9871V23.9432H56.9807V23.9347H56.9742V23.9262H56.9678V23.9177H56.9613V23.9093H56.9549V23.9008H56.9484V23.8923H56.942V23.8839H56.9355V23.8754H56.9291V23.8669H56.9226V23.8584H56.9162V23.85H56.9097V23.8415H56.9033V23.833H56.8968V23.8246H56.8904V23.8161H56.8839V23.8076H56.8775V23.7991H56.871V23.7907H56.8646V23.7822H56.8581V23.7737H56.8517V23.7653H56.8452V23.7568H56.8388V23.7483H56.8323V23.7398H56.8259V23.7314H56.8194V23.7229H56.813V23.7144H56.8065V23.706L55.282 24.0258L54.9293 21.247L56.2797 21.0395L55.0068 14.6836V14.6751H55.0003V14.6666H54.9939V14.6582H54.9874V14.6497H54.981V14.6412H54.9745V14.6328H54.9681V14.6243H54.9616V14.6158H54.9552V14.6073H54.9487V14.5989H54.9423V14.5904H54.9358V14.5819H54.9293V14.5735H54.9229V14.565H54.9164V14.5565H54.91V14.548H54.9035V14.5396H54.8971V14.5311H54.8906V14.5226H54.8842V14.5142H54.8777V14.5057H54.8713V14.4972H54.8648V14.4887H54.8584V14.4803H54.8519V14.4718H54.8455V14.4633H54.839V14.4549H54.8326V14.4464H54.8261V14.4379H54.8197V14.4294H54.8132V14.421H54.8068V14.4125H54.8003V14.404H54.7939V14.3956H54.7874V14.3871H54.781V14.3786H54.7745V14.3701H54.7681V14.3617H54.7616V14.3532H54.7552V14.3447H54.7487V14.3362H54.7423V14.3278H54.7358V14.3193H54.7294V14.3108H54.7229V14.3024H54.7165V14.2939H54.71V14.2854H54.7036V14.2769H54.6971V14.2685H54.6907V14.26H54.6842V14.2515H54.6778V14.2431H54.6713V14.2346L43.9803 16.8778L44.1631 17.7588H44.1566V17.7503H44.1502V17.7419H44.1437V17.7334H44.1373V17.7249H44.1308V17.7165H44.1243V17.708H44.1179V17.6995H44.1114V17.691H44.105V17.6826H44.0985V17.6741H44.0921V17.6656H44.0856V17.6572H44.0792V17.6487H44.0727V17.6402H44.0663V17.6317H44.0598V17.6233H44.0534V17.6148H44.0469V17.6063H44.0405V17.5979H44.034V17.5894H44.0276V17.5809H44.0211V17.5724H44.0147V17.564H44.0082V17.5555H44.0018V17.547H43.9953V17.5386H43.9889V17.5301H43.9824V17.5216H43.976V17.5131H43.9695V17.5047H43.9631V17.4962H43.9566V17.4877H43.9502V17.4793H43.9437V17.4708H43.9373V17.4623H43.9308V17.4538H43.9244V17.4454H43.9179V17.4369H43.9115V17.4284H43.905V17.4199H43.8986V17.4115H43.8921V17.403H43.8857V17.3945H43.8792V17.3861H43.8728V17.3776H43.8663V17.3691H43.8599V17.3606H43.8534V17.3522H43.847V17.3437H43.8405V17.3352H43.8341V17.3268H43.8276V17.3183H43.8212V17.3098H43.8147V17.3013H43.8083V17.2929H43.8018V17.2844H43.7954V17.2759H43.7889V17.2675H43.7825V17.259H43.776V17.2505H43.7696V17.242H43.7631V17.2336H43.7567V17.2251H43.7502V17.2166H43.7438V17.2082H43.7373V17.1997H43.7309V17.1912H43.7244V17.1827H43.718V17.1743H43.7115V17.1658H43.705V17.1573H43.6986V17.1489H43.6921V17.1404H43.6857V17.1319H43.6792V17.1234H43.6728V17.115H43.6663V17.1065H43.6599V17.098H43.6534V17.0896H43.647V17.0811H43.6405V17.0726H43.6341V17.0641H43.6276V17.0557H43.6212V17.0472H43.6147V17.0387H43.6083V17.0303H43.6018V17.0218H43.5954V17.0133H43.5889V17.0048H43.5825V16.9964H43.576V16.9879H43.5696V16.9794H43.5631V16.9709H43.5567V16.9625H43.5502V16.954H43.5438V16.9455H43.5373V16.9371H43.5309V16.9286H43.5244V16.9201H43.518V16.9116H43.5115V16.9032H43.5051V16.8947H43.4986V16.8862H43.4922V16.8778H43.4857V16.8693H43.4793V16.8608H43.4728V16.8523H43.4664V16.8439H43.4599V16.8354H43.4535V16.8269H43.447V16.8185L37.3554 17.2738V14.5692H37.3489V14.5607H37.3425V14.5523H37.336V14.5438H37.3296V14.5353H37.3231V14.5269H37.3167V14.5184H37.3102V14.5099H37.3038V14.5014H37.2973V14.493H37.2909V14.4845H37.2844V14.476H37.278V14.4676H37.2715V14.4591H37.2651V14.4506H37.2586V14.4421H37.2522V14.4337H37.2457V14.4252H37.2393V14.4167H37.2328V14.4083H37.2264V14.3998H37.2199V14.3913H37.2135V14.3828H37.207V14.3744H37.2005V14.3659H37.1941V14.3574H37.1876V14.349H37.1812V14.3405H37.1747V14.332H37.1683V14.3235H37.1618V14.3151H37.1554V14.3066H37.1489V14.2981H37.1425V14.2897H37.136V14.2812H37.1296V14.2727H37.1231V14.2642H37.1167V14.2558H37.1102V14.2473H37.1038V14.2388H37.0973V14.2304H37.0909V14.2219H37.0844V14.2134H37.078V14.2049H37.0715V14.1965H37.0651V14.188H37.0586V14.1795H37.0522V14.1711H37.0457V14.1626H37.0393V14.1541H37.0328V14.1456H37.0264V14.1372H37.0199V14.1287H37.0135V14.1202H37.007V14.1117H37.0006V14.1033H36.9941V14.0948H36.9877V14.0863H36.9812V14.0779H36.9748V14.0694H36.9683V14.0609H36.9619V14.0524H36.9554V14.044H36.949V14.0355H36.9425V14.027H36.9361V14.0186H36.9296V14.0101H36.9232V14.0016H36.9167V13.9931H36.9103V13.9847H36.9038V13.9762H36.8974V13.9677H36.8909V13.9593H36.8845V13.9508H36.878V13.9423H36.8716V13.9338H36.8651V13.9254H36.8587V13.9169H36.8522V13.9084H36.8458V13.9H36.8393V13.8915H36.8329V13.883H36.8264V13.8745H36.82V13.8661H36.8135V13.8576H36.8071V13.8491H36.8006V13.8407H36.7942V13.8322H36.7877V13.8237H36.7812V13.8152H36.7748V13.8068H36.7683V13.7983H36.7619V13.7898H36.7554V13.7814H36.749V13.7729H36.7425V13.7644H36.7361V13.7559H36.7296V13.7475H36.7232V13.739H36.7167V13.7305H36.7103V13.7221H36.7038V13.7136H36.6974V13.7051H36.6909V13.6966H36.6845V13.6882H36.678V13.6797H36.6716V13.6712H36.6651V13.6627H36.6587V13.6543H36.6522V13.6458H36.6458V13.6373H36.6393V13.6289H36.6329V13.6204H36.6264V13.6119H36.62V13.6034H36.6135V13.595H36.6071V13.5865H36.6006V13.578H36.5942V13.5696H36.5877V13.5611H36.5813V13.5526H36.5748V13.5441L21.7639 13.057V13.2074L18.0225 13.8597L18.0418 14.0863H17.801V14.0821H17.7946V14.0736H17.7881V14.0652H17.7817V14.0567H17.7752V14.0482H17.7688V14.0397H17.7623V14.0313H17.7559V14.0228H17.7494V14.0143H17.7429V14.0059H17.7365V13.9974H17.73V13.9889H17.7236V13.9804H17.7171V13.972H17.7107V13.9635H17.7042V13.955H17.6978V13.9466H17.6913V13.9381H17.6849V13.9296H17.6784V13.9211H17.672V13.9127H17.6655V13.9042H17.6591V13.8957H17.6526V13.8872H17.6462V13.8788H17.6397V13.8703L16.6313 14.0652H16.27L16.2786 14.1329L15.7647 14.2325L10.8105 14.5756L11.6319 17.5894H11.6362V17.5979H11.6427V17.6063H11.6491V17.6148H11.6556V17.6233H11.662V17.6317H11.6685V17.6402H11.6749V17.6487H11.6814V17.6572H11.6878V17.6656H11.6943V17.6741H11.7007V17.6826H11.7072V17.691H11.7137V17.6995H11.7201V17.708H11.7266V17.7165H11.733V17.7249H11.7395V17.7334H11.7459V17.7419H11.7524V17.7503H11.7588V17.7588H11.7653V17.7673H11.7717V17.7758H11.7782V17.7842H11.7846V17.7927H11.7911V17.8012H11.7975V17.8096H11.804V17.8181H11.8104V17.8266H11.8169V17.8351H11.8233V17.8435H11.8298V17.852H11.8362V17.8605H11.8427V17.869H11.8491V17.8774H11.8556V17.8859H11.862V17.8944H11.8685V17.9028H11.8749V17.9113H11.8814V17.9198H11.8878V17.9283H11.8943V17.9367H11.9007V17.9452H11.9072V17.9537H11.9136V17.9621H11.9201V17.9706H11.9265V17.9791H11.933V17.9876H11.9394V17.996H11.9459V18.0045H11.9523V18.013H11.9588V18.0214H11.9652V18.0299H11.9717V18.0384H11.9781V18.0469H11.9846V18.0553H11.991V18.0638H11.9975V18.0723H12.0039V18.0807H12.0104V18.0892H12.0168V18.0977H12.0233V18.1062H12.0297V18.1146H12.0362V18.1231H12.0426V18.1316H12.0491V18.14H12.0555V18.1485H12.062V18.157H12.0684V18.1655H12.0749V18.1739H12.0813V18.1824H12.0878V18.1909H12.0942V18.1993H12.1007V18.2078H12.1071V18.2163H12.1136V18.2248H12.12V18.2332H12.1265V18.2417H12.133V18.2502H12.1394V18.2586H12.1459V18.2671H12.1523V18.2756H12.1588V18.2841H12.1652V18.2925H12.1717V18.301H12.1781V18.3095H12.1846V18.3179H12.191V18.3264H12.1975V18.3349H12.2039V18.3434H12.2104V18.3518H12.2168V18.3603H12.2233V18.3688H12.2297V18.3773H12.2362V18.3857H12.2426V18.3942H12.2491V18.4027H12.2555V18.4111H12.262V18.4196H12.2684V18.4281H12.2749V18.4366H12.2813V18.445H12.2878V18.4535H12.2942V18.462H12.3007V18.4704H12.3071V18.4789H12.3136V18.4874H12.32V18.4959H12.3265V18.5043H12.3329V18.5128H12.3394V18.5213H12.3458V18.5297H12.3523V18.5382H12.3587V18.5467H12.3652V18.5552H12.3716V18.5636H12.3781V18.5721H12.3845V18.5806H12.391V18.589H12.3974V18.5975H12.4039L12.4189 18.7987H11.2427L14.4316 38.5886H14.438V38.5971H14.4445V38.6056H14.4509V38.614H14.4574V38.6225H14.4638V38.631H14.4703V38.6395H14.4767V38.6479H14.4832V38.6564H14.4896V38.6649H14.4961V38.6733H14.5025V38.6818H14.509V38.6903H14.5154V38.6988H14.5219V38.7072H14.5283V38.7157H14.5348V38.7242H14.5412V38.7326H14.5477V38.7411H14.5541V38.7496H14.5606V38.7581H14.567V38.7665H14.5735V38.775H14.5799V38.7835H14.5864V38.7919H14.5928V38.8004H14.5993V38.8089H14.6057V38.8174H14.6122V38.8258H14.6186V38.8343H14.6251V38.8428H14.6315V38.8512H14.638V38.8597H14.6444V38.8682H14.6509V38.8767H14.6573V38.8851H14.6638V38.8936H14.6702V38.9021H14.6767V38.9105H14.6831V38.919H14.6896V38.9275H14.696V38.936H14.7025V38.9444H14.7089V38.9529H14.7154V38.9614H14.7218V38.9698H14.7283V38.9783H14.7348V38.9868H14.7412V38.9953H14.7477V39.0037H14.7541V39.0122H14.7606V39.0207H14.767V39.0291H14.7735V39.0376H14.7799V39.0461H14.7864V39.0546H14.7928V39.063H14.7993V39.0715H14.8057V39.08H14.8122V39.0885H14.8186V39.0969H14.8251V39.1054H14.8315V39.1139H14.838V39.1223H14.8444V39.1308H14.8509V39.1393H14.8573V39.1478H14.8638V39.1562H14.8702V39.1647H14.8767V39.1732H14.8831V39.1816H14.8896V39.1901H14.896V39.1986H14.9025V39.2071H14.9089V39.2155H14.9154V39.224H14.9218V39.2325H14.9283V39.2409H14.9347V39.2494H14.9412V39.2579H14.9476V39.2664H14.9541V39.2748H14.9605V39.2833H14.967V39.2918H14.9734V39.3002H14.9799V39.3087H14.9863V39.3172H14.9928V39.3257H14.9992V39.3341H15.0057V39.3426H15.0121V39.3511H15.0186V39.3595H15.025V39.368H15.0315V39.3765H15.0379V39.385H15.0444V39.3934H15.0508V39.4019H15.0573V39.4104H15.0637V39.4188H15.0702V39.4273H15.0766V39.4358H15.0831V39.4443H15.0895V39.4527H15.096V39.4612H15.1024V39.4697H15.1089V39.4781H15.1153V39.4866H15.1218V39.4951H15.1282V39.5036H15.1347V39.512H15.1411V39.5205H15.1476V39.529H15.1541V39.5374H15.1605V39.5459H15.167V39.5544H15.1734V39.5629H15.1799V39.5713H15.1863V39.5798H15.1928V39.5883H15.1992V39.5968H15.2057V39.6052H15.2121V39.6137L33.7688 36.2377V29.6467H33.7623V29.6383H33.7559V29.6298H33.7494V29.6213H33.7429V29.6129H33.7365V29.6044H33.73V29.5959H33.7236V29.5874H33.7171V29.579H33.7107V29.5705H33.7042V29.562H33.6978V29.5535H33.6913V29.5451H33.6849V29.5366H33.6784V29.5281H33.672V29.5197H33.6655V29.5112H33.6591V29.5027H33.6526V29.4942H33.6462V29.4858H33.6397V29.4773H33.6333V29.4688H33.6268V29.4604H33.6204V29.4519H33.6139V29.4434H33.6075V29.4349H33.601V29.4265H33.5946V29.418H33.5881V29.4095H33.5817V29.4011H33.5752V29.3926H33.5688V29.3841H33.5623V29.3756H33.5559V29.3672H33.5494V29.3587H33.543V29.3502H33.5365V29.3418H33.5301V29.3333H33.5236V29.3248H33.5172V29.3163H33.5107V29.3079H33.5043V29.2994H33.4978V29.2909H33.4914V29.2825H33.4849V29.274H33.4785V29.2655H33.472V29.257H33.4656V29.2486H33.4591V29.2401H33.4527V29.2316H33.4462V29.2232H33.4398V29.2147H33.4333V29.2062H33.4269V29.1977H33.4204V29.1893H33.414V29.1808H33.4075V29.1723H33.4011V29.1638H33.3946V29.1554H33.3882V29.1469H33.3817V29.1384H33.3753V29.13H33.3688V29.1215H33.3624V29.113H33.3559V29.1045H33.3495V29.0961H33.343V29.0876H33.3365V29.0791H33.3301V29.0707H33.3236V29.0622H33.3172V29.0537H33.3107V29.0452H33.3043V29.0368H33.2978V29.0283H33.2914V29.0198H33.2849V29.0114H33.2785V29.0029H33.272V28.9944H33.2656V28.9859H33.2591V28.9775H33.2527V28.969H33.2462V28.9605H33.2398V28.9521H33.2333V28.9436H33.2269V28.9351H33.2204V28.9266H33.214V28.9182H33.2075V28.9097H33.2011V28.9012H33.1946V28.8928H33.1882V28.8843H33.1817V28.8758H33.1753V28.8673H33.1688V28.8589H33.1624V28.8504H33.1559V28.8419H33.1495V28.8335H33.143V28.825H33.1366V28.8165H33.1301V28.808H33.1237V28.7996H33.1172V28.7911H33.1108V28.7826H33.1043V28.7742H33.0979V28.7657H33.0914V28.7572H33.085V28.7487H33.0785V28.7403H33.0721V28.7318H33.0656V28.7233H33.0592V28.7148H33.0527V28.7064H33.0463V28.6979H33.0398V28.6894H33.0334V28.681H33.0269V28.6725H33.0205V28.664H33.014V28.6555H33.0076V28.6471H33.0011V28.6386H32.9947V28.6301H32.9882V28.6217L32.7044 28.681L32.4442 23.7017H34.2461L34.0096 34.8907H34.016V34.8992H34.0225V34.9077H34.0289V34.9161H34.0354V34.9246H34.0418V34.9331H34.0483V34.9416H34.0547V34.95H34.0612V34.9585H34.0676V34.967H34.0741V34.9754H34.0805V34.9839H34.087V34.9924H34.0934V35.0009H34.0999V35.0093H34.1063V35.0178H34.1128V35.0263H34.1192V35.0347H34.1257V35.0432H34.1321V35.0517H34.1386V35.0602H34.145V35.0686H34.1515V35.0771H34.1579V35.0856H34.1644V35.094H34.1708V35.1025H34.1773V35.111H34.1837V35.1195H34.1902V35.1279H34.1966V35.1364H34.2031V35.1449H34.2096V35.1533H34.216V35.1618H34.2225V35.1703H34.2289V35.1788H34.2354V35.1872H34.2418V35.1957H34.2483V35.2042H34.2547V35.2126H34.2612V35.2211H34.2676V35.2296H34.2741V35.2381H34.2805V35.2465H34.287V35.255H34.2934V35.2635H34.2999V35.2719H34.3063V35.2804H34.3128V35.2889H34.3192V35.2974H34.3257V35.3058H34.3321V35.3143H34.3386V35.3228H34.345V35.3313H34.3515V35.3397H34.3579V35.3482H34.3644V35.3567H34.3708V35.3651H34.3773V35.3736H34.3837V35.3821H34.3902V35.3906H34.3966V35.399H34.4031V35.4075H34.4095V35.416H34.416V35.4244H34.4224V35.4329H34.4289V35.4414H34.4353V35.4499H34.4418V35.4583H34.4482V35.4668H34.4547V35.4753H34.4611V35.4837H34.4676V35.4922H34.474V35.5007H34.4805V35.5092H34.4869V35.5176H34.4934V35.5261H34.4998V35.5346H34.5063V35.543H34.5127V35.5515H34.5192V35.56H34.5256V35.5685H34.5321V35.5769H34.5385V35.5854H34.545V35.5939H34.5514V35.6023H34.5579V35.6108H34.5643V35.6193H34.5708V35.6278H34.5772V35.6362H34.5837V35.6447H34.5901V35.6532H34.5966V35.6616H34.603V35.6701H34.6095V35.6786H34.616V35.6871H34.6224V35.6955H34.6289V35.704H34.6353V35.7125H34.6418V35.7209H34.6482V35.7294H34.6547V35.7379H34.6611V35.7464H34.6676V35.7548H34.674V35.7633H34.6805V35.7718H34.6869V35.7803H34.6934V35.7887H34.6998V35.7972H34.7063V35.8057H34.7127V35.8141H34.7192V35.8226H34.7256V35.8311H34.7321V35.8396H34.7385V35.848H34.745V35.8565H34.7514V35.865H34.7579V35.8734H34.7643V35.8819H34.7708V35.8904H34.7772V35.8989H34.7837V35.9073H34.7901V35.9158L41.4795 38.182L41.043 30.2969L42.86 37.8685H42.8643V37.877H42.8686V37.8855H42.8729V37.8939H42.8772V37.9024H42.8815V37.9109H42.8858V37.9194H42.8901V37.9278H42.8944V37.9363H42.8987V37.9448H42.903V37.9532H42.9073V37.9617H42.9116V37.9702H42.9159V37.9787H42.9202V37.9871H42.9245V37.9956H42.9288V38.0041H42.9331V38.0125H42.9374V38.021H42.9417V38.0295H42.946V38.038H42.9503V38.0464H42.9546V38.0549H42.9589V38.0634H42.9632V38.0718H42.9675V38.0803H42.9718V38.0888H42.9761V38.0973H42.9804V38.1057H42.9847V38.1142H42.989V38.1227H42.9933V38.1311H42.9976V38.1396H43.0019V38.1481H43.0062V38.1566H43.0105V38.165H43.0148V38.1735H43.0191V38.182H43.0234V38.1905H43.0277V38.1989H43.032V38.2074H43.0363V38.2159H43.0406V38.2243H43.0449V38.2328H43.0492V38.2413H43.0535V38.2498H43.0578V38.2582H43.0621V38.2667H43.0664V38.2752H43.0707V38.2836H43.075V38.2921H43.0793V38.3006H43.0836V38.3091H43.0879V38.3175H43.0922V38.326H43.0965V38.3345H43.1008V38.3429H43.1051V38.3514H43.1094V38.3599H43.1137V38.3684H43.118V38.3768H43.1223V38.3853H43.1266V38.3938H43.1309V38.4022H43.1352V38.4107H43.1395V38.4192H43.1438V38.4277H43.1481V38.4361H43.1524V38.4446H43.1567V38.4531H43.161V38.4615H43.1653V38.47H43.1696V38.4785H43.1739V38.487H43.1782V38.4954H43.1825V38.5039H43.1868V38.5124H43.1911V38.5208H43.1954V38.5293H43.1997V38.5378H43.204V38.5463H43.2083V38.5547H43.2126V38.5632H43.2169V38.5717H43.2212V38.5801H43.2255V38.5886H43.2298V38.5971H43.2341V38.6056H43.2384V38.614H43.2427V38.6225H43.247V38.631H43.2513V38.6395H43.2556V38.6479H43.2599V38.6564H43.2643V38.6649H43.2685V38.6733H43.2729V38.6818H43.2772V38.6903H43.2814V38.6988H43.2858V38.7072H43.2901V38.7157H43.2944V38.7242H43.2987V38.7326H43.303V38.7411H43.3073V38.7496H43.3116V38.7581H43.3159V38.7665H43.3202V38.775H43.3245V38.7835H43.3288V38.7919H43.3331V38.8004H43.3374V38.8089H43.3417V38.8174H43.346V38.8258H43.3503V38.8343H43.3546V38.8428H43.3589V38.8512H43.3632V38.8597H43.3675V38.8682H43.3718V38.8767H43.3761V38.8851H43.3804V38.8936L59.7588 34.9903L58.5353 30.1699L58.5977 30.1593L58.7976 30.2122ZM44.3007 22.0307L44.0964 18.3709L44.8296 21.9142L44.3007 22.0307Z" fill="black"/>
<path d="M116.683 28.2298C116.511 27.91 116.313 27.6178 116.1 27.353C116.098 27.3509 116.096 27.3467 116.094 27.3445C116.092 27.3424 116.089 27.3382 116.087 27.3361C116.085 27.334 116.083 27.3297 116.081 27.3276C116.079 27.3255 116.077 27.3212 116.074 27.3191C116.072 27.317 116.07 27.3128 116.068 27.3107C116.066 27.3085 116.064 27.3043 116.061 27.3022C116.059 27.3001 116.057 27.2958 116.055 27.2937C116.053 27.2916 116.051 27.2874 116.049 27.2852C116.046 27.2831 116.044 27.2789 116.042 27.2768C116.04 27.2746 116.038 27.2704 116.036 27.2683C116.034 27.2662 116.031 27.2619 116.029 27.2598C116.027 27.2577 116.025 27.2535 116.023 27.2514C116.021 27.2492 116.018 27.245 116.016 27.2429C116.014 27.2408 116.012 27.2365 116.01 27.2344C116.008 27.2323 116.006 27.2281 116.003 27.2259C116.001 27.2238 115.999 27.2196 115.997 27.2175C115.995 27.2153 115.993 27.2111 115.991 27.209C115.988 27.2069 115.986 27.2026 115.984 27.2005C115.982 27.1984 115.98 27.1942 115.978 27.192C115.975 27.1899 115.973 27.1857 115.971 27.1836C115.969 27.1815 115.967 27.1772 115.965 27.1751C115.963 27.173 115.96 27.1688 115.958 27.1666C115.956 27.1645 115.954 27.1603 115.952 27.1582C115.95 27.156 115.948 27.1518 115.945 27.1497C115.943 27.1476 115.941 27.1433 115.939 27.1412C115.937 27.1391 115.935 27.1349 115.932 27.1327C115.93 27.1306 115.928 27.1264 115.926 27.1243C115.924 27.1222 115.922 27.1179 115.92 27.1158C115.917 27.1137 115.915 27.1095 115.913 27.1073C115.911 27.1052 115.909 27.101 115.907 27.0989C115.905 27.0967 115.902 27.0925 115.9 27.0904C115.898 27.0883 115.896 27.084 115.894 27.0819C115.892 27.0798 115.889 27.0756 115.887 27.0734C115.885 27.0713 115.883 27.0671 115.881 27.065C115.879 27.0629 115.877 27.0586 115.874 27.0565C115.872 27.0544 115.87 27.0501 115.868 27.048C115.866 27.0459 115.864 27.0417 115.862 27.0396C115.859 27.0374 115.857 27.0332 115.855 27.0311C115.853 27.029 115.851 27.0247 115.849 27.0226C115.846 27.0205 115.844 27.0163 115.842 27.0141C115.84 27.012 115.838 27.0078 115.836 27.0057C115.834 27.0036 115.831 26.9993 115.829 26.9972C115.827 26.9951 115.825 26.9908 115.823 26.9887C115.821 26.9866 115.818 26.9824 115.816 26.9803C115.814 26.9781 115.812 26.9739 115.81 26.9718C115.808 26.9697 115.806 26.9654 115.803 26.9633C115.801 26.9612 115.799 26.957 115.797 26.9548C115.795 26.9527 115.793 26.9485 115.791 26.9464C115.788 26.9443 115.786 26.94 115.784 26.9379C115.782 26.9358 115.78 26.9315 115.778 26.9294C115.775 26.9273 115.773 26.9231 115.771 26.921C115.769 26.9188 115.767 26.9146 115.765 26.9125C115.763 26.9104 115.76 26.9061 115.758 26.904C115.756 26.9019 115.754 26.8977 115.752 26.8955C115.75 26.8934 115.748 26.8892 115.745 26.8871C115.743 26.8849 115.741 26.8807 115.739 26.8786C115.737 26.8765 115.735 26.8722 115.732 26.8701C115.73 26.868 115.728 26.8638 115.726 26.8617C115.724 26.8595 115.722 26.8553 115.72 26.8532C115.717 26.8511 115.715 26.8468 115.713 26.8447C115.711 26.8426 115.709 26.8384 115.707 26.8362C115.705 26.8341 115.702 26.8299 115.7 26.8278C115.698 26.8256 115.696 26.8214 115.694 26.8193C115.692 26.8172 115.689 26.8129 115.687 26.8108C115.685 26.8087 115.683 26.8045 115.681 26.8024C115.679 26.8002 115.677 26.796 115.674 26.7939C115.672 26.7918 115.67 26.7875 115.668 26.7854C115.666 26.7833 115.664 26.7791 115.662 26.7769C115.659 26.7748 115.657 26.7706 115.655 26.7685C115.653 26.7663 115.651 26.7621 115.649 26.76C115.646 26.7579 115.644 26.7536 115.642 26.7515C115.64 26.7494 115.638 26.7452 115.636 26.743C115.634 26.7409 115.631 26.7367 115.629 26.7346C115.627 26.7325 115.625 26.7282 115.623 26.7261C115.621 26.724 115.619 26.7198 115.616 26.7176C115.614 26.7155 115.612 26.7113 115.61 26.7092C115.608 26.707 115.606 26.7028 115.603 26.7007C115.601 26.6986 115.599 26.6943 115.597 26.6922C115.595 26.6901 115.593 26.6859 115.591 26.6837C115.588 26.6816 115.586 26.6774 115.584 26.6753C115.582 26.6732 115.58 26.6689 115.578 26.6668C115.576 26.6647 115.573 26.6605 115.571 26.6583C115.569 26.6562 115.567 26.652 115.565 26.6499C115.563 26.6477 115.56 26.6435 115.558 26.6414C115.556 26.6393 115.554 26.635 115.552 26.6329C115.55 26.6308 115.548 26.6266 115.545 26.6244C115.543 26.6223 115.541 26.6181 115.539 26.616C115.537 26.6139 115.535 26.6096 115.533 26.6075C115.53 26.6054 115.528 26.6011 115.526 26.599C115.524 26.5969 115.522 26.5927 115.52 26.5906C115.517 26.5884 115.515 26.5842 115.513 26.5821C115.511 26.58 115.509 26.5757 115.507 26.5736C115.505 26.5715 115.502 26.5673 115.5 26.5651C115.498 26.563 115.496 26.5588 115.494 26.5567C115.492 26.5546 115.49 26.5503 115.487 26.5482C115.485 26.5461 115.483 26.5418 115.481 26.5397C115.479 26.5376 115.477 26.5334 115.474 26.5313C115.472 26.5291 115.47 26.5249 115.468 26.5228C115.466 26.5207 115.464 26.5164 115.462 26.5143C115.459 26.5122 115.457 26.508 115.455 26.5058C115.453 26.5037 115.451 26.4995 115.449 26.4974C115.446 26.4953 115.444 26.491 115.442 26.4889C115.44 26.4868 115.438 26.4825 115.436 26.4804C115.434 26.4783 115.431 26.4741 115.429 26.472C115.427 26.4698 115.425 26.4656 115.423 26.4635C115.421 26.4614 115.419 26.4571 115.416 26.455C115.414 26.4529 115.412 26.4487 115.41 26.4465C115.408 26.4444 115.406 26.4402 115.404 26.4381C115.401 26.436 115.399 26.4317 115.397 26.4296C115.395 26.4275 115.393 26.4232 115.391 26.4211C115.388 26.419 115.386 26.4148 115.384 26.4127C115.382 26.4105 115.38 26.4063 115.378 26.4042C115.376 26.4021 115.373 26.3978 115.371 26.3957C115.369 26.3936 115.367 26.3894 115.365 26.3872C115.363 26.3851 115.36 26.3809 115.358 26.3788C115.356 26.3766 115.354 26.3724 115.352 26.3703C115.35 26.3682 115.348 26.3639 115.345 26.3618C115.343 26.3597 115.341 26.3555 115.339 26.3534C115.337 26.3512 115.335 26.347 115.333 26.3449C115.33 26.3428 115.328 26.3385 115.326 26.3364C115.036 25.9764 114.718 25.6693 114.397 25.4172L116.689 21.6007L116.681 21.5944L116.672 21.5859L116.664 21.5774L116.655 21.569L116.646 21.5605L116.638 21.552L116.629 21.5435L116.621 21.5351L116.612 21.5266L116.603 21.5181L116.595 21.5097L116.586 21.5012L116.578 21.4927L116.569 21.4842L116.56 21.4758L116.552 21.4673L116.543 21.4588L116.535 21.4504L116.526 21.4419L116.517 21.4334L116.509 21.4249L116.5 21.4165L116.492 21.408L116.483 21.3995L116.474 21.3911L116.466 21.3826L116.457 21.3741L116.449 21.3656L116.44 21.3572L116.431 21.3487L116.423 21.3402L116.414 21.3317L116.406 21.3233L116.397 21.3148L116.388 21.3063L116.38 21.2979L116.371 21.2894L116.363 21.2809L116.354 21.2724L116.345 21.264L116.337 21.2555L116.328 21.247L116.32 21.2386L116.311 21.2301L116.302 21.2216L116.294 21.2131L116.285 21.2047L116.277 21.1962L116.268 21.1877L116.259 21.1793L116.251 21.1708L116.242 21.1623L116.233 21.1538L116.225 21.1454L116.216 21.1369L116.208 21.1284L116.199 21.12L116.19 21.1115L116.182 21.103L116.173 21.0945L116.165 21.0861L116.156 21.0776L116.147 21.0691L116.139 21.0607L116.13 21.0522L116.122 21.0437L116.113 21.0352L116.104 21.0268L116.096 21.0183L116.087 21.0098L116.079 21.0014L116.07 20.9929L116.061 20.9844L116.053 20.9759L116.044 20.9675L116.036 20.959L116.027 20.9505L116.018 20.942L116.01 20.9336L116.001 20.9251L115.993 20.9166L115.984 20.9082L115.975 20.8997L115.967 20.8912L115.958 20.8827L115.95 20.8743L115.941 20.8658L115.932 20.8573L115.924 20.8489L115.915 20.8404L115.907 20.8319L115.898 20.8234L115.889 20.815L115.881 20.8065L115.872 20.798L115.864 20.7896L115.855 20.7811L115.846 20.7726L115.838 20.7641L115.829 20.7557L115.821 20.7472L115.812 20.7387L115.803 20.7303L115.795 20.7218L115.786 20.7133L115.778 20.7048L115.769 20.6964L115.76 20.6879L115.752 20.6794L115.743 20.671L115.735 20.6625L115.726 20.654L115.717 20.6455L115.709 20.6371L115.7 20.6286L115.692 20.6201L115.683 20.6117L115.674 20.6032L115.666 20.5947L115.657 20.5862L115.649 20.5778L114.705 19.9847C114.623 19.9339 112.662 18.7225 110.417 18.5657C108.172 18.409 106.317 19.3621 105.192 21.3296C104.934 21.7829 104.732 22.2234 104.581 22.6533C103.295 21.9608 102.007 21.5647 100.745 21.4758C98.2058 21.2979 96.2383 22.3547 94.8729 23.5069L94.9181 22.6279H94.9116V22.6194H94.9052V22.611H94.8987V22.6025H94.8923V22.594H94.8858V22.5856H94.8794V22.5771H94.8729V22.5686H94.8665V22.5601H94.86V22.5517H94.8536V22.5432H94.8471V22.5347H94.8407V22.5263H94.8342V22.5178H94.8278V22.5093H94.8213V22.5008H94.8149V22.4924H94.8084V22.4839H94.802V22.4754H94.7955V22.467H94.7891V22.4585H94.7826V22.45H94.7762V22.4415H94.7697V22.4331H94.7633V22.4246H94.7568V22.4161H94.7504V22.4077H94.7439V22.3992H94.7375V22.3907H94.731V22.3822H94.7246V22.3738H94.7181V22.3653H94.7117V22.3568H94.7052V22.3484H94.6988V22.3399H94.6923V22.3314H94.6859V22.3229H94.6794V22.3145H94.673V22.306H94.6665V22.2975H94.6601V22.2891H94.6536V22.2806H94.6472V22.2721H94.6407V22.2636H94.6342V22.2552H94.6278V22.2467H94.6213V22.2382H94.6149V22.2297H94.6084V22.2213H94.602V22.2128H94.5955V22.2043H94.5891V22.1959H94.5826V22.1874H94.5762V22.1789H94.5697V22.1704H94.5633V22.162H94.5568V22.1535H94.5504V22.145H94.5439V22.1366H94.5375V22.1281H94.531V22.1196H94.5246V22.1111H94.5181V22.1027H94.5117V22.0942H94.5052V22.0857H94.4988V22.0773H94.4923V22.0688H94.4859V22.0603H94.4794V22.0518H94.473V22.0434H94.4665V22.0349H94.4601V22.0264H94.4536V22.018H94.4472V22.0095H94.4407V22.001H94.4343V21.9925H94.4278V21.9841H94.4214V21.9756H94.4149V21.9671H94.4085V21.9587H94.402V21.9502H94.3956V21.9417H94.3891V21.9332H94.3827V21.9248H94.3762V21.9163H94.3698V21.9078H94.3633V21.8994H94.3569V21.8909H94.3504V21.8824H94.344V21.8739H94.3375V21.8655H94.3311V21.857H94.3246V21.8485H94.3182V21.8401H94.3117V21.8316H94.3053V21.8231H94.2988V21.8146H94.2924V21.8062H94.2859V21.7977H94.2795V21.7892H94.273V21.7807H94.2666V21.7723H94.2601V21.7638H94.2537V21.7553H94.2472V21.7469H94.2408V21.7384H94.2343V21.7299H94.2279V21.7214H94.2214V21.713H94.215V21.7045H94.2085V21.696H94.2021V21.6876H94.1956V21.6791H94.1891V21.6706H94.1827V21.6621H94.1762V21.6537H94.1698V21.6452H94.1633V21.6367H94.1569V21.6283H94.1504V21.6198H94.144V21.6113H94.1375V21.6028L87.833 19.0529L87.9212 22.7084L83.969 17.7292L84.3453 14.6476H84.3367V14.6391H84.3281V14.6306H84.3195V14.6222H84.3109V14.6137H84.3023V14.6052H84.2937V14.5967H84.2851V14.5883H84.2765V14.5798H84.2679V14.5713H84.2593V14.5629H84.2507V14.5544H84.2421V14.5459H84.2335V14.5374H84.2249V14.529H84.2163V14.5205H84.2077V14.512H84.1991V14.5036H84.1905V14.4951H84.1819V14.4866H84.1733V14.4781H84.1647V14.4697H84.1561V14.4612H84.1475V14.4527H84.1389V14.4443H84.1303V14.4358H84.1217V14.4273H84.1131V14.4188H84.1045V14.4104H84.0959V14.4019H84.0873V14.3934H84.0787V14.385H84.0701V14.3765H84.0615V14.368H84.0529V14.3595H84.0443V14.3511H84.0357V14.3426H84.0271V14.3341H84.0185V14.3256H84.0099V14.3172H84.0013V14.3087H83.9927V14.3002H83.9841V14.2918H83.9755V14.2833H83.9669V14.2748H83.9583V14.2663H83.9497V14.2579H83.9411V14.2494H83.9325V14.2409H83.9239V14.2325H83.9153V14.224H83.9067V14.2155H83.8981V14.207H83.8895V14.1986H83.8809V14.1901H83.8723V14.1816H83.8637V14.1732H83.8551V14.1647H83.8465V14.1562H83.8379V14.1477H83.8292V14.1393H83.8207V14.1308H83.812V14.1223H83.8034V14.1139H83.7948V14.1054H83.7862V14.0969H83.7776V14.0884H83.769V14.08H83.7604V14.0715H83.7518V14.063H83.7432V14.0546H83.7346V14.0461H83.726V14.0376H83.7174V14.0291H83.7088V14.0207H83.7002V14.0122H83.6916V14.0037H83.683V13.9953H83.6744V13.9868H83.6658V13.9783H83.6572V13.9698H83.6486V13.9614H83.64V13.9529H83.6314V13.9444H83.6228V13.936H83.6142V13.9275H83.6056V13.919H83.597V13.9105H83.5884V13.9021H83.5798V13.8936H83.5712V13.8851H83.5626V13.8766H83.554V13.8682H83.5454V13.8597H83.5368V13.8512H83.5282V13.8428H83.5196V13.8343H83.511V13.8258H83.5024V13.8173H83.4938V13.8089H83.4852V13.8004H83.4766V13.7919H83.468V13.7835H83.4594V13.775H83.4508V13.7665H83.4422V13.758H83.4336V13.7496H83.425V13.7411H83.4164V13.7326H83.4078V13.7242H83.3992V13.7157H83.3906V13.7072H83.382V13.6987H83.3734V13.6903H83.3648V13.6818H83.3562V13.6733H83.3476V13.6649H83.339V13.6564H83.3304V13.6479H83.3218V13.6394H83.3132V13.631H83.3046V13.6225L77.8494 14.6349V14.6285L77.843 14.6306V14.62L77.8365 14.6222V14.6116L77.8301 14.6137V14.6031L77.8236 14.6052V14.5946L77.8172 14.5967V14.5862L77.8107 14.5883V14.5777L77.8043 14.5798V14.5692L77.7978 14.5713V14.5607L77.7914 14.5629V14.5523L77.7849 14.5544V14.5438L77.7785 14.5459V14.5353L77.772 14.5374V14.5269L77.7656 14.529V14.5184L77.7591 14.5205V14.5099L77.7526 14.512V14.5014L77.7462 14.5036V14.493L77.7397 14.4951V14.4845L77.7333 14.4866V14.476L77.7268 14.4781V14.4675L77.7204 14.4697V14.4591L77.7139 14.4612V14.4506L77.7075 14.4527V14.4421L77.701 14.4443V14.4337L77.6946 14.4358V14.4252L77.6881 14.4273V14.4167L77.6817 14.4188V14.4082L77.6752 14.4104V14.3998L77.6688 14.4019V14.3913L77.6623 14.3934V14.3828L77.6559 14.385V14.3744L77.6494 14.3765V14.3659L77.643 14.368V14.3574L77.6365 14.3595V14.3489L77.6301 14.3511V14.3405L77.6236 14.3426V14.332L77.6172 14.3341V14.3235L77.6107 14.3256V14.3151L77.6043 14.3172V14.3066L77.5978 14.3087V14.2981L77.5914 14.3002V14.2896L77.5849 14.2918V14.2812L77.5785 14.2833V14.2727L77.572 14.2748V14.2642L77.5656 14.2663V14.2558L77.5591 14.2579V14.2473L77.5527 14.2494V14.2388L77.5462 14.2409V14.2303L77.5398 14.2325V14.2219L77.5333 14.224V14.2134L77.5269 14.2155V14.2049L77.5204 14.207V14.1965L77.514 14.1986V14.188L77.5075 14.1901V14.1795L77.5011 14.1816V14.171L77.4946 14.1732V14.1626L77.4882 14.1647V14.1541L77.4817 14.1562V14.1456L77.4753 14.1477V14.1372L77.4688 14.1393V14.1287L77.4624 14.1308V14.1202L77.4559 14.1223V14.1117L77.4495 14.1139V14.1033L77.443 14.1054V14.0948L77.4366 14.0969V14.0863L77.4301 14.0884V14.0779L77.4237 14.08V14.0694L77.4172 14.0715V14.0609L77.4108 14.063V14.0524L77.4043 14.0546V14.044L77.3979 14.0461V14.0355L77.3914 14.0376V14.027L77.385 14.0291V14.0186L77.3785 14.0207V14.0101L77.3721 14.0122V14.0016L77.3656 14.0037V13.9931L71.5427 16.505H71.5363V16.4965H71.5298V16.4881H71.5234V16.4796H71.5169V16.4711H71.5105V16.4626H71.504V16.4542H71.4976V16.4457H71.4911V16.4372H71.4847V16.4287H71.4782V16.4203H71.4718V16.4118H71.4653V16.4033H71.4589V16.3949H71.4524V16.3864H71.446V16.3779H71.4395V16.3694H71.4331V16.361H71.4266V16.3525H71.4202V16.344H71.4137V16.3356H71.4073V16.3271H71.4008V16.3186H71.3944V16.3101H71.3879V16.3017H71.3815V16.2932H71.375V16.2847H71.3686V16.2763H71.3621V16.2678H71.3557V16.2593H71.3492V16.2508H71.3428V16.2424H71.3363V16.2339H71.3299V16.2254H71.3234V16.217H71.317V16.2085H71.3105V16.2H71.3041V16.1915H71.2976V16.1831H71.2911V16.1746H71.2847V16.1661H71.2782V16.1577H71.2718V16.1492H71.2653V16.1407H71.2589V16.1322H71.2524V16.1238H71.246V16.1153H71.2395V16.1068H71.2331V16.0984H71.2266V16.0899H71.2202V16.0814H71.2137V16.0729H71.2073V16.0645H71.2008V16.056H71.1944V16.0475H71.1879V16.0391H71.1815V16.0306H71.175V16.0221H71.1686V16.0136H71.1621V16.0052H71.1557V15.9967H71.1492V15.9882H71.1428V15.9797H71.1363V15.9713L57.6758 17.2717L58.667 23.9156V23.9199V23.9241H58.6735V23.9326H58.6799V23.941H58.6864V23.9495H58.6928V23.958L61.0603 23.6212L61.5398 36.6211H61.5462V36.6295H61.5527V36.638H61.5591V36.6465H61.5656V36.6549H61.572V36.6634H61.5785V36.6719H61.5849V36.6804H61.5914V36.6888H61.5978V36.6973H61.6043V36.7058H61.6107V36.7142H61.6172V36.7227H61.6236V36.7312H61.6301V36.7397H61.6365V36.7481H61.643V36.7566H61.6494V36.7651H61.6559V36.7735H61.6623V36.782H61.6688V36.7905H61.6752V36.799H61.6817V36.8074H61.6881V36.8159H61.6946V36.8244H61.701V36.8328H61.7075V36.8413H61.7139V36.8498H61.7204V36.8583H61.7268V36.8667H61.7333V36.8752H61.7397V36.8837H61.7462V36.8922H61.7527V36.9006H61.7591V36.9091H61.7656V36.9176H61.772V36.926H61.7785V36.9345H61.7849V36.943H61.7914V36.9515H61.7978V36.9599H61.8043V36.9684H61.8107V36.9769H61.8172V36.9853H61.8236V36.9938H61.8301V37.0023H61.8365V37.0108H61.843V37.0192H61.8494V37.0277H61.8559V37.0362H61.8623V37.0446H61.8688V37.0531H61.8752V37.0616H61.8817V37.0701H61.8881V37.0785H61.8946V37.087H61.901V37.0955H61.9075V37.1039H61.9139V37.1124H61.9204V37.1209H61.9268V37.1294H61.9333V37.1378H61.9397V37.1463H61.9462V37.1548H61.9526V37.1632H61.9591V37.1717H61.9655V37.1802H61.972V37.1887H61.9784V37.1971H61.9849V37.2056H61.9913V37.2141H61.9978V37.2225H62.0042V37.231H62.0107V37.2395H62.0171V37.248H62.0236V37.2564H62.03V37.2649H62.0365V37.2734H62.0429V37.2818H62.0494V37.2903H62.0558V37.2988H62.0623V37.3073H62.0687V37.3157H62.0752V37.3242H62.0816V37.3327H62.0881V37.3412H62.0945V37.3496H62.101V37.3581H62.1074V37.3666H62.1139V37.375H62.1203V37.3835H62.1268V37.392H62.1332V37.4005H62.1397V37.4089H62.1461V37.4174H62.1526V37.4259H62.159V37.4343H62.1655V37.4428H62.172V37.4513H62.1784V37.4598H62.1849V37.4682H62.1913V37.4767H62.1978V37.4852H62.2042V37.4936H62.2107V37.5021H62.2171V37.5106H62.2236V37.5191H62.23V37.5275H62.2365V37.536H62.2429V37.5445H62.2494V37.5529H62.2558V37.5614H62.2623V37.5699H62.2687V37.5784H62.2752V37.5868H62.2816V37.5953H62.2881V37.6038H62.2945V37.6122H62.301V37.6207H62.3074V37.6292H62.3139V37.6377H62.3203V37.6461L68.1948 37.5741L68.0937 35.4837L72.2308 35.3207V35.327H72.2373V35.3355H72.2437V35.3439H72.2502V35.3524H72.2566V35.3609H72.2631V35.3694H72.2695V35.3778H72.276V35.3863H72.2824V35.3948H72.2889V35.4032H72.2953V35.4117H72.3018V35.4202H72.3082V35.4287H72.3147V35.4371H72.3211V35.4456H72.3276V35.4541H72.334V35.4626H72.3405V35.471H72.3469V35.4795H72.3534V35.488L78.0429 35.4032L78.0472 34.6471L80.1803 34.7954H80.1824V34.8018L80.191 34.806V34.8102L80.1975 34.8145V34.8187L80.2039 34.8229V34.8272L80.2104 34.8314V34.8356L80.2168 34.8399V34.8441L80.2233 34.8484V34.8526L80.2297 34.8568V34.8611L80.2362 34.8653V34.8695L80.2426 34.8738V34.878L80.2491 34.8822V34.8865L80.2555 34.8907V34.8949L80.262 34.8992V34.9034L80.2684 34.9077V34.9119L80.2749 34.9161V34.9204L86.0935 38.2497L86.9407 30.4727L93.0689 38.5547L93.0753 38.5632L93.0818 38.5717L93.0882 38.5801L93.0947 38.5886L93.1011 38.5971L93.1076 38.6056L93.114 38.614L93.1205 38.6225L93.1269 38.631L93.1334 38.6394L93.1398 38.6479L93.1463 38.6564L93.1527 38.6649L93.1592 38.6733L93.1656 38.6818L93.1721 38.6903L93.1785 38.6987L93.185 38.7072L93.1914 38.7157L93.1979 38.7242L93.2043 38.7326L93.2108 38.7411L93.2172 38.7496L93.2237 38.758L93.2301 38.7665L93.2366 38.775L93.243 38.7835L93.2495 38.7919L93.2559 38.8004L93.2624 38.8089L93.2688 38.8173L93.2753 38.8258L93.2817 38.8343L93.2882 38.8428L93.2946 38.8512L93.3011 38.8597L93.3075 38.8682L93.314 38.8766L93.3204 38.8851L93.3269 38.8936L93.3333 38.9021L93.3398 38.9105L93.3462 38.919L93.3527 38.9275L93.3592 38.9359L93.3656 38.9444L93.3721 38.9529L93.3785 38.9614L93.385 38.9698L93.3914 38.9783L93.3979 38.9868L93.4043 38.9953L93.4108 39.0037L93.4172 39.0122L93.4237 39.0207L93.4301 39.0291L93.4366 39.0376L93.443 39.0461L93.4495 39.0546L93.4559 39.063L93.4624 39.0715L93.4688 39.08L93.4753 39.0884L93.4817 39.0969L93.4882 39.1054L93.4946 39.1139L93.5011 39.1223L93.5075 39.1308L93.514 39.1393L93.5204 39.1477L93.5269 39.1562L93.5333 39.1647L93.5398 39.1732L93.5462 39.1816L93.5527 39.1901L93.5591 39.1986L93.5656 39.207L93.572 39.2155L93.5785 39.224L93.5849 39.2325L93.5914 39.2409L93.5978 39.2494L93.6043 39.2579L93.6107 39.2663L93.6172 39.2748L93.6236 39.2833L93.6301 39.2918L93.6365 39.3002L93.643 39.3087L93.6494 39.3172L93.6559 39.3256L93.6623 39.3341L93.6688 39.3426L93.6752 39.3511L93.6817 39.3595L93.6881 39.368L93.6946 39.3765L93.701 39.385L93.7075 39.3934L93.7139 39.4019L93.7204 39.4104L93.7268 39.4188L93.7333 39.4273L93.7397 39.4358L93.7462 39.4443L93.7526 39.4527L93.7591 39.4612L93.7656 39.4697L93.772 39.4781L93.7785 39.4866L93.7849 39.4951L93.7914 39.5036L93.7978 39.512L93.8043 39.5205L93.8107 39.529L93.8172 39.5374L93.8236 39.5459L93.8301 39.5544L93.8365 39.5629L93.843 39.5713L93.8494 39.5798L94.0042 36.6062C94.0042 36.6062 94.0064 36.6083 94.0085 36.6105C94.0107 36.6126 94.0128 36.6168 94.015 36.6189C94.0171 36.6211 94.0193 36.6253 94.0214 36.6274C94.0236 36.6295 94.0257 36.6338 94.0279 36.6359C94.03 36.638 94.0322 36.6422 94.0343 36.6444C94.0365 36.6465 94.0386 36.6507 94.0408 36.6528C94.0429 36.6549 94.0451 36.6592 94.0472 36.6613C94.0494 36.6634 94.0515 36.6677 94.0537 36.6698C94.0558 36.6719 94.058 36.6761 94.0601 36.6782C94.0623 36.6804 94.0644 36.6846 94.0666 36.6867C94.0687 36.6888 94.0709 36.6931 94.073 36.6952C94.0752 36.6973 94.0773 36.7015 94.0795 36.7037C94.0816 36.7058 94.0838 36.71 94.0859 36.7121C94.0881 36.7142 94.0902 36.7185 94.0924 36.7206C94.0945 36.7227 94.0967 36.727 94.0988 36.7291C94.101 36.7312 94.1031 36.7354 94.1053 36.7375C94.1074 36.7397 94.1096 36.7439 94.1117 36.746C94.1139 36.7481 94.116 36.7524 94.1182 36.7545C94.1203 36.7566 94.1225 36.7608 94.1246 36.763C94.1268 36.7651 94.1289 36.7693 94.1311 36.7714C94.1332 36.7735 94.1354 36.7778 94.1375 36.7799C94.1397 36.782 94.1418 36.7863 94.144 36.7884C94.1461 36.7905 94.1483 36.7947 94.1504 36.7968C94.1526 36.799 94.1547 36.8032 94.1569 36.8053C94.159 36.8074 94.1612 36.8117 94.1633 36.8138C94.1655 36.8159 94.1676 36.8201 94.1698 36.8223C94.1719 36.8244 94.1741 36.8286 94.1762 36.8307C94.1784 36.8328 94.1805 36.8371 94.1827 36.8392C94.1848 36.8413 94.187 36.8456 94.1891 36.8477C94.1913 36.8498 94.1934 36.854 94.1956 36.8561C94.1978 36.8583 94.1999 36.8625 94.2021 36.8646C94.2042 36.8667 94.2064 36.871 94.2085 36.8731C94.2107 36.8752 94.2128 36.8794 94.215 36.8816C94.2171 36.8837 94.2193 36.8879 94.2214 36.89C94.2236 36.8921 94.2257 36.8964 94.2279 36.8985C94.23 36.9006 94.2322 36.9049 94.2343 36.907C94.2365 36.9091 94.2386 36.9133 94.2408 36.9154C94.2429 36.9176 94.2451 36.9218 94.2472 36.9239C94.2494 36.926 94.2515 36.9303 94.2537 36.9324C94.2558 36.9345 94.258 36.9387 94.2601 36.9409C94.2623 36.943 94.2644 36.9472 94.2666 36.9493C94.2687 36.9515 94.2709 36.9557 94.273 36.9578C94.2752 36.9599 94.2773 36.9642 94.2795 36.9663C94.2816 36.9684 94.2838 36.9726 94.2859 36.9748C94.2881 36.9769 94.2902 36.9811 94.2924 36.9832C94.2945 36.9853 94.2967 36.9896 94.2988 36.9917C94.301 36.9938 94.3031 36.998 94.3053 37.0002C94.3074 37.0023 94.3096 37.0065 94.3117 37.0086C94.3139 37.0108 94.316 37.015 94.3182 37.0171C94.3203 37.0192 94.3225 37.0235 94.3246 37.0256C94.3268 37.0277 94.3289 37.0319 94.3311 37.0341C94.3332 37.0362 94.3354 37.0404 94.3375 37.0425C94.3397 37.0446 94.3418 37.0489 94.344 37.051C95.275 38.1205 96.505 38.8533 97.9865 39.207C98.7047 39.3786 99.41 39.4887 100.083 39.5353C104.798 39.8636 106.755 37.051 106.835 36.9303L107.015 36.6613L107.05 35.6193C107.837 36.0746 108.809 36.3584 109.869 36.4326C112.486 36.6147 115.73 35.5007 116.676 32.6266C117.184 31.0848 117.076 29.5705 116.367 28.2447L116.683 28.2298Z" fill="black"/>
<path d="M22.4902 14.5141V17.8033L25.9349 17.977V30.0555L30.5021 29.329L29.9064 17.8732L35.1057 17.8372V14.9293L22.4902 14.5141Z" fill="white"/>
<path d="M11.8242 15.9226L12.0822 16.8693H13.0671L13.2541 19.2731L14.4948 19.1524L14.168 16.6829H14.8238V15.715L11.8242 15.9226Z" fill="white"/>
<path d="M15.2695 15.715L16.3468 15.5075L16.5575 16.7761L17.2607 16.6384L17.1209 15.5075H18.2928L18.5508 18.6695H17.4735C17.4735 18.6695 17.2865 17.4644 17.2865 17.4962C17.2865 17.528 16.6306 17.6084 16.6306 17.6084L16.9123 18.8305H15.5534L15.2717 15.715H15.2695Z" fill="white"/>
<path d="M18.8301 15.0923L19.1118 18.3921L21.5243 18.2184L21.4297 17.4941H20.002L20.0235 17.0302L20.7266 16.9604L20.6814 16.2L20.002 16.2445L20.0471 15.715H21.148L21.0792 14.6984L18.8301 15.0923Z" fill="white"/>
<path d="M12.2461 20.1394C12.3343 20.1394 16.6391 19.2731 16.6391 19.2731L18.6775 32.8766L31.6091 30.2122V34.573L15.0565 37.5847L12.2461 20.1394Z" fill="white"/>
<path d="M31.9785 18.9809V21.9565H35.105L34.8426 34.3824L39.2356 35.8713L38.4615 21.8866L42.3277 21.3678L42.1513 18.2184L31.9785 18.9809Z" fill="white"/>
<path d="M40.4453 23.9813L44.8748 23.0134L46.7369 31.8388L56.8216 29.7272L57.7355 33.3277L43.503 36.7185L40.4453 23.9813Z" fill="white"/>
<path d="M45.1035 17.8202L47.6344 30.0555L56.5944 28.4289L55.8569 25.089L51.0769 26.0929L50.849 24.64L53.2917 24.1189L52.8702 20.798L50.3394 21.5584L50.0233 19.9318L54.3109 19.2731L53.6422 15.7087L45.1035 17.8202Z" fill="white"/>
<path d="M58.9531 18.2671L59.0477 21.5901L62.2237 21.1369L62.7505 35.4414L66.3048 35.3969L65.6038 20.9548L70.2613 20.5142L70.1301 17.1891L58.9531 18.2671Z" fill="white"/>
<path d="M66.9863 21.7977L70.3601 21.7045L70.5815 26.3576L72.7081 26.095L72.5211 17.3543L76.3399 15.7087L76.2281 33.2281L72.7834 33.279L72.5791 28.9288L70.7858 29.1681L70.9428 33.1519L67.2702 33.2959L66.9863 21.7977Z" fill="white"/>
<path d="M77.0254 15.9565L82.1623 15.0013L80.0078 32.6351L77.0254 32.4276V15.9565Z" fill="white"/>
<path d="M82.7567 18.068L80.8516 33.2599L84.4769 35.3334L85.4552 26.3279L92.2823 35.3312L92.9575 22.3314L89.0397 20.7472L89.1687 26.15L82.7567 18.068Z" fill="white"/>
<path d="M105.05 24.1952L103.427 27.2154C103.427 27.2154 100.462 25.7328 98.7715 28.1663C97.0793 30.5998 99.6725 33.8953 102.808 32.7474L103.175 30.7332L100.042 31.0975L100.361 28.2044L105.562 28.4205L105.33 35.255C105.33 35.255 103.227 38.3705 97.7114 37.0574C92.1982 35.7442 92.4111 28.6534 93.8646 26.4402C95.3182 24.227 99.294 20.3872 105.05 24.1952Z" fill="white"/>
<path d="M114.182 20.9315L112.332 24.0088C112.332 24.0088 111.485 22.4013 110.326 23.1045C109.165 23.8076 111.32 25.1567 112.687 25.7836C113.928 26.3533 116.1 27.9884 115.033 31.2309C113.969 34.4735 108.744 35.0919 106.565 33.2281L107.871 30.0025C107.871 30.0025 110.137 31.7858 111.01 30.7248C111.778 29.7929 110.898 28.5136 108.445 27.6728C108.06 27.5415 103.815 26.203 106.29 21.8739C108.765 17.5449 114.184 20.9293 114.184 20.9293L114.182 20.9315Z" fill="white"/>
<path d="M25.3526 21.9544C25.2128 21.0585 24.7183 20.3533 23.8861 19.864C23.3873 19.5696 22.8175 19.432 22.239 19.4659C21.3359 19.5188 20.5038 19.9911 20.0114 20.7324C19.4545 21.5711 19.3835 22.5199 19.805 23.5513C20.0565 24.1698 20.493 24.6527 21.0994 24.9831C21.1059 24.9915 21.1123 25.0021 21.1188 25.0148C21.0005 25.1567 20.9962 25.3156 20.9941 25.4278C20.9941 25.4532 20.9941 25.4787 20.9898 25.5041C20.9725 25.6714 21.0177 25.9001 21.3209 26.0484C21.3166 26.167 21.3209 26.3237 21.4133 26.4677L21.3918 26.6689C21.3725 26.8532 21.3531 27.0374 21.3316 27.2238C21.3101 27.4144 21.2865 27.6051 21.2628 27.7978L21.2564 27.8444C21.2069 27.8423 21.1575 27.8401 21.108 27.838C21.108 27.7554 21.1059 27.6728 21.1037 27.5902L21.0951 27.1836L20.6522 27.2175C20.4651 27.2323 20.2888 27.245 20.1124 27.2641C19.9641 27.281 19.8501 27.4208 19.8286 27.5415C19.7319 28.0879 19.6394 28.6344 19.5426 29.1914L19.4502 29.7293L20.392 29.8501L20.4027 30.3965L19.4351 30.2482L19.3147 31.411L19.4287 31.4173C19.3986 31.4809 19.3771 31.5635 19.3599 31.6736C19.3534 31.7202 19.3448 31.7668 19.3362 31.8134L19.0137 33.6941L20.5812 33.8953V33.9228L22.6669 34.3019L22.7013 34.0139C22.7056 33.9864 22.7078 33.9673 22.7078 33.9482L22.7272 33.2409C22.7487 32.472 22.7702 31.7011 22.7917 30.9323C22.7917 30.9323 22.8884 27.317 22.9099 26.5207C22.9099 26.5016 22.9164 26.472 22.9228 26.4487C22.9508 26.3428 22.9766 26.2326 23.011 26.1246C23.2927 26.0103 23.4303 25.7752 23.3937 25.4681C23.3937 25.4532 23.3937 25.4427 23.3937 25.4427L23.4131 25.3812C23.469 25.2033 23.4969 25.1292 23.6174 25.0784C24.972 24.5129 25.5225 23.0452 25.3505 21.9523L25.3526 21.9544ZM20.8134 31.8113L20.6651 31.807L20.6586 31.4893L20.85 31.4999L20.8156 31.8113H20.8134ZM21.0994 29.2422V29.2168C21.0994 29.2168 21.0994 29.2168 21.1016 29.2168C21.1016 29.2253 21.1016 29.2337 21.0994 29.2401V29.2422Z" fill="white"/>
<path d="M22.4601 34.0245C21.9182 33.9271 21.3893 33.8296 20.8431 33.7322C20.8689 33.495 20.8926 33.2641 20.9184 33.0164C20.7506 32.9676 20.5851 32.9189 20.4088 32.866L20.4238 33.639C20.0475 33.5903 19.6755 33.5437 19.2949 33.495C19.3852 32.9613 19.4734 32.4487 19.5616 31.9362C19.5745 31.8621 19.5874 31.788 19.6003 31.7138C19.6261 31.55 19.7243 31.4618 19.8948 31.4491C20.0604 31.4364 20.226 31.4237 20.4131 31.4088C20.4174 31.6228 20.4217 31.824 20.426 32.04C20.6367 32.0463 20.8237 32.0527 21.0259 32.059C21.056 31.7985 21.0839 31.5486 21.114 31.2797C20.6001 31.25 20.1034 31.2204 19.5809 31.1907C19.6046 30.9662 19.6261 30.7502 19.6497 30.5214C19.983 30.5723 20.3012 30.621 20.6496 30.6739C20.6431 30.3986 20.6388 30.1381 20.6345 29.8606C20.8603 29.8776 21.0581 29.8903 21.2689 29.9051C21.299 29.6319 21.3291 29.3714 21.3527 29.1109C21.3549 29.0855 21.3226 29.0389 21.299 29.0304C21.157 28.9817 21.0108 28.9436 20.8517 28.897C20.856 29.1638 20.8625 29.4095 20.8668 29.67C20.484 29.6213 20.1142 29.5747 19.7314 29.526C19.8432 28.8673 19.9529 28.2256 20.0669 27.5839C20.0733 27.5521 20.112 27.5055 20.14 27.5013C20.3657 27.478 20.5937 27.461 20.8603 27.4399C20.8646 27.6156 20.8689 27.7787 20.8689 27.9418C20.8689 28.0329 20.8969 28.0773 21.0001 28.0752C21.1527 28.0731 21.3033 28.0858 21.471 28.0943C21.5054 27.8063 21.5398 27.5288 21.572 27.2514C21.6021 26.9909 21.6279 26.7282 21.6559 26.4656C21.658 26.4423 21.6709 26.4084 21.6602 26.3978C21.514 26.2496 21.5742 26.0632 21.5613 25.8874C21.5183 25.8726 21.4774 25.8599 21.4387 25.8429C21.3033 25.7794 21.2108 25.6926 21.228 25.5274C21.243 25.3855 21.2065 25.2393 21.3441 25.125C21.4151 25.0657 21.3269 24.8369 21.2258 24.7819C20.6689 24.4811 20.2647 24.0448 20.0282 23.4645C19.6626 22.5707 19.6605 21.6939 20.2131 20.8637C20.985 19.7031 22.5547 19.3578 23.7631 20.0695C24.5114 20.51 24.9823 21.1348 25.1156 21.9925C25.2662 22.9562 24.8103 24.3286 23.5266 24.8645C23.275 24.9703 23.2342 25.1694 23.1675 25.3749C23.1546 25.413 23.1525 25.4596 23.1589 25.4998C23.1869 25.737 23.0772 25.8726 22.8493 25.9361C22.8192 25.9446 22.7998 26.0103 22.7869 26.0526C22.7525 26.1649 22.7224 26.2813 22.6945 26.3957C22.6837 26.436 22.6751 26.4783 22.6751 26.5186C22.6364 27.9884 22.5977 29.4604 22.5569 30.9302C22.5289 31.9362 22.5009 32.9401 22.473 33.9461C22.473 33.9652 22.4687 33.9821 22.4644 34.0266L22.4601 34.0245ZM22.4343 24.5849C23.7137 24.5743 24.748 23.528 24.7351 22.2552C24.7221 21.0035 23.6556 19.9826 22.3784 19.9953C21.1033 20.008 20.069 21.0501 20.0776 22.3124C20.0862 23.5768 21.1441 24.5955 22.4343 24.5849Z" fill="#7B1316"/>
<path d="M22.3716 20.1139C23.5908 20.0928 24.5992 21.0585 24.6164 22.2615C24.6336 23.4624 23.6553 24.4557 22.4339 24.4705C21.2148 24.4875 20.2127 23.5217 20.1955 22.3145C20.1783 21.12 21.1545 20.133 22.3716 20.1139ZM21.6685 20.5396C21.3416 20.5163 20.718 20.995 20.6879 21.2682C20.6772 21.3572 20.7417 21.3911 20.8148 21.3678C20.8686 21.3508 20.918 21.3042 20.9589 21.2597C21.0707 21.139 21.1717 21.0077 21.2879 20.8891C21.4018 20.7726 21.5287 20.6667 21.6685 20.5396ZM20.8062 21.4737C20.6557 21.4398 20.5783 21.4758 20.531 21.5944C20.4235 21.8718 20.3891 22.1556 20.4364 22.45C20.4428 22.486 20.4579 22.522 20.4686 22.558C20.4815 22.558 20.4923 22.558 20.5052 22.558C20.5245 22.181 20.6019 21.8189 20.8062 21.4737Z" fill="#7B1316"/>
<path d="M81.3525 18.8771L81.4406 18.4726L77.882 18.4111L77.7508 19.7857L78.3894 20.4803L77.7422 27.3636L78.598 27.4589L79.2775 20.69L78.6152 19.9593L78.6367 18.7309L81.3525 18.8771Z" fill="#A6A8AB"/>
<path d="M77.8829 18.4111L78.5947 18.7119L78.872 19.6268L78.5344 19.9657L77.7797 19.7793L77.7539 19.7857L77.8829 18.4111Z" fill="#808184"/>
<path d="M81.3938 18.7945L78.5942 18.7119L78.534 19.9657L79.2027 20.6964L78.334 27.4462L79.7144 27.5415L80.0907 20.7027L81.2325 19.8789L81.3938 18.7945Z" fill="#231F20"/>
</svg>
