<svg width="25" height="25" viewBox="0 0 25 25" fill="none" xmlns="http://www.w3.org/2000/svg">
<mask id="mask0_1291_1999" style="mask-type:alpha" maskUnits="userSpaceOnUse" x="0" y="0" width="25" height="25">
<rect width="25" height="25" fill="#D9D9D9"/>
</mask>
<g mask="url(#mask0_1291_1999)">
<path d="M12.5 14.0625C11.7722 14.0625 11.1562 13.8104 10.652 13.3062C10.1479 12.8021 9.89579 12.1861 9.89579 11.4583V5.20832C9.89579 4.48055 10.1479 3.86457 10.652 3.36041C11.1562 2.85624 11.7722 2.60416 12.5 2.60416C13.2277 2.60416 13.8437 2.85624 14.3479 3.36041C14.852 3.86457 15.1041 4.48055 15.1041 5.20832V11.4583C15.1041 12.1861 14.852 12.8021 14.3479 13.3062C13.8437 13.8104 13.2277 14.0625 12.5 14.0625ZM11.7187 21.6146V18.181C9.99996 17.9846 8.57201 17.2475 7.43486 15.9695C6.2977 14.6914 5.72913 13.1877 5.72913 11.4583H7.29163C7.29163 12.8993 7.79944 14.1276 8.81506 15.1432C9.83069 16.1588 11.059 16.6667 12.5 16.6667C13.9409 16.6667 15.1692 16.1588 16.1849 15.1432C17.2005 14.1276 17.7083 12.8993 17.7083 11.4583H19.2708C19.2708 13.1877 18.7022 14.6914 17.5651 15.9695C16.4279 17.2475 15 17.9846 13.2812 18.181V21.6146H11.7187Z" fill="#2D2D2D"/>
</g>
</svg>
